<?xml version="1.0" encoding="UTF-8" standalone="no"?><svg xmlns="http://www.w3.org/2000/svg" xmlns:xlink="http://www.w3.org/1999/xlink" contentScriptType="application/ecmascript" contentStyleType="text/css" height="1953px" preserveAspectRatio="none" style="width:2166px;height:1953px;" version="1.1" viewBox="0 0 2166 1953" width="2166px" zoomAndPan="magnify"><defs><filter height="300%" id="f1owxft4wpoopb" width="300%" x="-1" y="-1"><feGaussianBlur result="blurOut" stdDeviation="2.0"/><feColorMatrix in="blurOut" result="blurOut2" type="matrix" values="0 0 0 0 0 0 0 0 0 0 0 0 0 0 0 0 0 0 .4 0"/><feOffset dx="4.0" dy="4.0" in="blurOut2" result="blurOut3"/><feBlend in="SourceGraphic" in2="blurOut3" mode="normal"/></filter></defs><g><rect fill="#DDDDDD" height="1941.9297" style="stroke:#A80036;stroke-width:1.0;" width="238" x="1922" y="6"/><text fill="#000000" font-family="sans-serif" font-size="13" font-weight="bold" lengthAdjust="spacingAndGlyphs" textLength="112" x="1985" y="18.0669">External Server</text><rect fill="#FFFFFF" filter="url(#f1owxft4wpoopb)" height="29.1328" style="stroke:#A80036;stroke-width:1.0;" width="10" x="133" y="577.2891"/><rect fill="#FFFFFF" filter="url(#f1owxft4wpoopb)" height="145.6641" style="stroke:#A80036;stroke-width:1.0;" width="10" x="512" y="119.4297"/><rect fill="#FFFFFF" filter="url(#f1owxft4wpoopb)" height="214.7969" style="stroke:#A80036;stroke-width:1.0;" width="10" x="512" y="333.3594"/><rect fill="#FFFFFF" filter="url(#f1owxft4wpoopb)" height="414.8906" style="stroke:#A80036;stroke-width:1.0;" width="10" x="512" y="635.5547"/><rect fill="#FFFFFF" filter="url(#f1owxft4wpoopb)" height="709.7891" style="stroke:#A80036;stroke-width:1.0;" width="10" x="512" y="1142.8438"/><rect fill="#FFFFFF" filter="url(#f1owxft4wpoopb)" height="145.6641" style="stroke:#A80036;stroke-width:1.0;" width="10" x="517" y="1683.9688"/><rect fill="#FFFFFF" filter="url(#f1owxft4wpoopb)" height="87.3984" style="stroke:#A80036;stroke-width:1.0;" width="10" x="785" y="148.5625"/><rect fill="#FFFFFF" filter="url(#f1owxft4wpoopb)" height="156.5313" style="stroke:#A80036;stroke-width:1.0;" width="10" x="785" y="362.4922"/><rect fill="#FFFFFF" filter="url(#f1owxft4wpoopb)" height="40.1328" style="stroke:#A80036;stroke-width:1.0;" width="10" x="790" y="399.625"/><rect fill="#FFFFFF" filter="url(#f1owxft4wpoopb)" height="356.625" style="stroke:#A80036;stroke-width:1.0;" width="10" x="785" y="664.6875"/><rect fill="#FFFFFF" filter="url(#f1owxft4wpoopb)" height="680.6563" style="stroke:#A80036;stroke-width:1.0;" width="10" x="785" y="1171.9766"/><rect fill="#FFFFFF" filter="url(#f1owxft4wpoopb)" height="87.3984" style="stroke:#A80036;stroke-width:1.0;" width="10" x="790" y="1713.1016"/><rect fill="#FFFFFF" filter="url(#f1owxft4wpoopb)" height="20.1641" style="stroke:#A80036;stroke-width:1.0;" width="10" x="1384" y="874.6172"/><rect fill="#FFFFFF" filter="url(#f1owxft4wpoopb)" height="651.5234" style="stroke:#A80036;stroke-width:1.0;" width="10" x="1384" y="1201.1094"/><rect fill="#FFFFFF" filter="url(#f1owxft4wpoopb)" height="40.1328" style="stroke:#A80036;stroke-width:1.0;" width="10" x="1389" y="1320.6406"/><rect fill="#FFFFFF" filter="url(#f1owxft4wpoopb)" height="25" style="stroke:#A80036;stroke-width:1.0;" width="10" x="1389" y="1591.7031"/><rect fill="#FFFFFF" filter="url(#f1owxft4wpoopb)" height="29.1328" style="stroke:#A80036;stroke-width:1.0;" width="10" x="1389" y="1742.2344"/><rect fill="#FFFFFF" filter="url(#f1owxft4wpoopb)" height="29.1328" style="stroke:#A80036;stroke-width:1.0;" width="10" x="1596" y="1230.2422"/><rect fill="#FFFFFF" filter="url(#f1owxft4wpoopb)" height="29.1328" style="stroke:#A80036;stroke-width:1.0;" width="10" x="1690" y="1443.0391"/><rect fill="#FFFFFF" filter="url(#f1owxft4wpoopb)" height="29.1328" style="stroke:#A80036;stroke-width:1.0;" width="10" x="1788" y="1501.3047"/><rect fill="#FFFFFF" filter="url(#f1owxft4wpoopb)" height="29.1328" style="stroke:#A80036;stroke-width:1.0;" width="10" x="1875" y="177.6953"/><rect fill="#FFFFFF" filter="url(#f1owxft4wpoopb)" height="14" style="stroke:#A80036;stroke-width:1.0;" width="10" x="1875" y="475.8906"/><rect fill="#FFFFFF" filter="url(#f1owxft4wpoopb)" height="29.1328" style="stroke:#A80036;stroke-width:1.0;" width="10" x="1875" y="693.8203"/><rect fill="#FFFFFF" filter="url(#f1owxft4wpoopb)" height="29.1328" style="stroke:#A80036;stroke-width:1.0;" width="10" x="2036" y="752.0859"/><rect fill="#FFFFFF" filter="url(#f1owxft4wpoopb)" height="29.1328" style="stroke:#A80036;stroke-width:1.0;" width="10" x="2036" y="963.0469"/><rect fill="#FFFFFF" filter="url(#f1owxft4wpoopb)" height="740.0547" style="stroke:#000000;stroke-width:2.0;" width="1624" x="220" y="1104.5781"/><rect fill="#FFFFFF" filter="url(#f1owxft4wpoopb)" height="101.3984" style="stroke:#000000;stroke-width:2.0;" width="266" x="1339" y="1274.375"/><rect fill="#FFFFFF" filter="url(#f1owxft4wpoopb)" height="86.2656" style="stroke:#000000;stroke-width:2.0;" width="267" x="1339" y="1545.4375"/><rect fill="#FFFFFF" filter="url(#f1owxft4wpoopb)" height="191.9297" style="stroke:#000000;stroke-width:2.0;" width="1209" x="230" y="1645.7031"/><line style="stroke:#A80036;stroke-width:1.0;stroke-dasharray:5.0,5.0;" x1="138" x2="138" y1="88.2969" y2="1861.6328"/><line style="stroke:#A80036;stroke-width:1.0;stroke-dasharray:5.0,5.0;" x1="285" x2="285" y1="88.2969" y2="1861.6328"/><line style="stroke:#A80036;stroke-width:1.0;stroke-dasharray:5.0,5.0;" x1="516.5" x2="516.5" y1="88.2969" y2="1861.6328"/><line style="stroke:#A80036;stroke-width:1.0;stroke-dasharray:5.0,5.0;" x1="789.5" x2="789.5" y1="88.2969" y2="1861.6328"/><line style="stroke:#A80036;stroke-width:1.0;stroke-dasharray:5.0,5.0;" x1="1389" x2="1389" y1="861" y2="1861.6328"/><line style="stroke:#A80036;stroke-width:1.0;stroke-dasharray:5.0,5.0;" x1="1601" x2="1601" y1="88.2969" y2="1861.6328"/><line style="stroke:#A80036;stroke-width:1.0;stroke-dasharray:5.0,5.0;" x1="1695" x2="1695" y1="88.2969" y2="1861.6328"/><line style="stroke:#A80036;stroke-width:1.0;stroke-dasharray:5.0,5.0;" x1="1793" x2="1793" y1="88.2969" y2="1861.6328"/><line style="stroke:#A80036;stroke-width:1.0;stroke-dasharray:5.0,5.0;" x1="1880" x2="1880" y1="88.2969" y2="1861.6328"/><line style="stroke:#A80036;stroke-width:1.0;stroke-dasharray:5.0,5.0;" x1="2041" x2="2041" y1="88.2969" y2="1861.6328"/><text fill="#000000" font-family="sans-serif" font-size="14" lengthAdjust="spacingAndGlyphs" textLength="98" x="86" y="84.9951">DesktopClient</text><ellipse cx="138" cy="15" fill="#FEFECE" filter="url(#f1owxft4wpoopb)" rx="8" ry="8" style="stroke:#A80036;stroke-width:2.0;"/><path d="M138,23 L138,50 M125,31 L151,31 M138,50 L125,65 M138,50 L151,65 " fill="none" filter="url(#f1owxft4wpoopb)" style="stroke:#A80036;stroke-width:2.0;"/><text fill="#000000" font-family="sans-serif" font-size="14" lengthAdjust="spacingAndGlyphs" textLength="98" x="86" y="1873.6279">DesktopClient</text><ellipse cx="138" cy="1886.9297" fill="#FEFECE" filter="url(#f1owxft4wpoopb)" rx="8" ry="8" style="stroke:#A80036;stroke-width:2.0;"/><path d="M138,1894.9297 L138,1921.9297 M125,1902.9297 L151,1902.9297 M138,1921.9297 L125,1936.9297 M138,1921.9297 L151,1936.9297 " fill="none" filter="url(#f1owxft4wpoopb)" style="stroke:#A80036;stroke-width:2.0;"/><text fill="#000000" font-family="sans-serif" font-size="14" lengthAdjust="spacingAndGlyphs" textLength="84" x="240" y="84.9951">MobileClient</text><ellipse cx="285" cy="15" fill="#FEFECE" filter="url(#f1owxft4wpoopb)" rx="8" ry="8" style="stroke:#A80036;stroke-width:2.0;"/><path d="M285,23 L285,50 M272,31 L298,31 M285,50 L272,65 M285,50 L298,65 " fill="none" filter="url(#f1owxft4wpoopb)" style="stroke:#A80036;stroke-width:2.0;"/><text fill="#000000" font-family="sans-serif" font-size="14" lengthAdjust="spacingAndGlyphs" textLength="84" x="240" y="1873.6279">MobileClient</text><ellipse cx="285" cy="1886.9297" fill="#FEFECE" filter="url(#f1owxft4wpoopb)" rx="8" ry="8" style="stroke:#A80036;stroke-width:2.0;"/><path d="M285,1894.9297 L285,1921.9297 M272,1902.9297 L298,1902.9297 M285,1921.9297 L272,1936.9297 M285,1921.9297 L298,1936.9297 " fill="none" filter="url(#f1owxft4wpoopb)" style="stroke:#A80036;stroke-width:2.0;"/><rect fill="#FEFECE" filter="url(#f1owxft4wpoopb)" height="30.2969" style="stroke:#A80036;stroke-width:1.5;" width="41" x="494.5" y="53"/><text fill="#000000" font-family="sans-serif" font-size="14" lengthAdjust="spacingAndGlyphs" textLength="27" x="501.5" y="72.9951">App</text><rect fill="#FEFECE" filter="url(#f1owxft4wpoopb)" height="30.2969" style="stroke:#A80036;stroke-width:1.5;" width="41" x="494.5" y="1860.6328"/><text fill="#000000" font-family="sans-serif" font-size="14" lengthAdjust="spacingAndGlyphs" textLength="27" x="501.5" y="1880.6279">App</text><rect fill="#FEFECE" filter="url(#f1owxft4wpoopb)" height="30.2969" style="stroke:#A80036;stroke-width:1.5;" width="61" x="757.5" y="53"/><text fill="#000000" font-family="sans-serif" font-size="14" lengthAdjust="spacingAndGlyphs" textLength="47" x="764.5" y="72.9951">Router</text><rect fill="#FEFECE" filter="url(#f1owxft4wpoopb)" height="30.2969" style="stroke:#A80036;stroke-width:1.5;" width="61" x="757.5" y="1860.6328"/><text fill="#000000" font-family="sans-serif" font-size="14" lengthAdjust="spacingAndGlyphs" textLength="47" x="764.5" y="1880.6279">Router</text><rect fill="#FEFECE" filter="url(#f1owxft4wpoopb)" height="30.2969" style="stroke:#A80036;stroke-width:1.5;" width="76" x="1349" y="1860.6328"/><text fill="#000000" font-family="sans-serif" font-size="14" lengthAdjust="spacingAndGlyphs" textLength="62" x="1356" y="1880.6279">Predictor</text><rect fill="#FEFECE" filter="url(#f1owxft4wpoopb)" height="30.2969" style="stroke:#A80036;stroke-width:1.5;" width="70" x="1564" y="53"/><text fill="#000000" font-family="sans-serif" font-size="14" lengthAdjust="spacingAndGlyphs" textLength="56" x="1571" y="72.9951">IImputer</text><rect fill="#FEFECE" filter="url(#f1owxft4wpoopb)" height="30.2969" style="stroke:#A80036;stroke-width:1.5;" width="70" x="1564" y="1860.6328"/><text fill="#000000" font-family="sans-serif" font-size="14" lengthAdjust="spacingAndGlyphs" textLength="56" x="1571" y="1880.6279">IImputer</text><rect fill="#FEFECE" filter="url(#f1owxft4wpoopb)" height="30.2969" style="stroke:#A80036;stroke-width:1.5;" width="90" x="1648" y="53"/><text fill="#000000" font-family="sans-serif" font-size="14" lengthAdjust="spacingAndGlyphs" textLength="76" x="1655" y="72.9951">INormalizer</text><rect fill="#FEFECE" filter="url(#f1owxft4wpoopb)" height="30.2969" style="stroke:#A80036;stroke-width:1.5;" width="90" x="1648" y="1860.6328"/><text fill="#000000" font-family="sans-serif" font-size="14" lengthAdjust="spacingAndGlyphs" textLength="76" x="1655" y="1880.6279">INormalizer</text><rect fill="#FEFECE" filter="url(#f1owxft4wpoopb)" height="30.2969" style="stroke:#A80036;stroke-width:1.5;" width="78" x="1752" y="53"/><text fill="#000000" font-family="sans-serif" font-size="14" lengthAdjust="spacingAndGlyphs" textLength="64" x="1759" y="72.9951">IClassifier</text><rect fill="#FEFECE" filter="url(#f1owxft4wpoopb)" height="30.2969" style="stroke:#A80036;stroke-width:1.5;" width="78" x="1752" y="1860.6328"/><text fill="#000000" font-family="sans-serif" font-size="14" lengthAdjust="spacingAndGlyphs" textLength="64" x="1759" y="1880.6279">IClassifier</text><text fill="#000000" font-family="sans-serif" font-size="14" lengthAdjust="spacingAndGlyphs" textLength="66" x="1844" y="84.9951">Database</text><path d="M1862,36 C1862,26 1880,26 1880,26 C1880,26 1898,26 1898,36 L1898,62 C1898,72 1880,72 1880,72 C1880,72 1862,72 1862,62 L1862,36 " fill="#FEFECE" filter="url(#f1owxft4wpoopb)" style="stroke:#000000;stroke-width:1.5;"/><path d="M1862,36 C1862,46 1880,46 1880,46 C1880,46 1898,46 1898,36 " fill="none" style="stroke:#000000;stroke-width:1.5;"/><text fill="#000000" font-family="sans-serif" font-size="14" lengthAdjust="spacingAndGlyphs" textLength="66" x="1844" y="1873.6279">Database</text><path d="M1862,1886.9297 C1862,1876.9297 1880,1876.9297 1880,1876.9297 C1880,1876.9297 1898,1876.9297 1898,1886.9297 L1898,1912.9297 C1898,1922.9297 1880,1922.9297 1880,1922.9297 C1880,1922.9297 1862,1922.9297 1862,1912.9297 L1862,1886.9297 " fill="#FEFECE" filter="url(#f1owxft4wpoopb)" style="stroke:#000000;stroke-width:1.5;"/><path d="M1862,1886.9297 C1862,1896.9297 1880,1896.9297 1880,1896.9297 C1880,1896.9297 1898,1896.9297 1898,1886.9297 " fill="none" style="stroke:#000000;stroke-width:1.5;"/><rect fill="#FEFECE" filter="url(#f1owxft4wpoopb)" height="30.2969" style="stroke:#A80036;stroke-width:1.5;" width="226" x="1926" y="53"/><text fill="#000000" font-family="sans-serif" font-size="14" lengthAdjust="spacingAndGlyphs" textLength="212" x="1933" y="72.9951">WorkspaceManagementServer</text><rect fill="#FEFECE" filter="url(#f1owxft4wpoopb)" height="30.2969" style="stroke:#A80036;stroke-width:1.5;" width="226" x="1926" y="1860.6328"/><text fill="#000000" font-family="sans-serif" font-size="14" lengthAdjust="spacingAndGlyphs" textLength="212" x="1933" y="1880.6279">WorkspaceManagementServer</text><rect fill="#FFFFFF" filter="url(#f1owxft4wpoopb)" height="29.1328" style="stroke:#A80036;stroke-width:1.0;" width="10" x="133" y="577.2891"/><rect fill="#FFFFFF" filter="url(#f1owxft4wpoopb)" height="145.6641" style="stroke:#A80036;stroke-width:1.0;" width="10" x="512" y="119.4297"/><rect fill="#FFFFFF" filter="url(#f1owxft4wpoopb)" height="214.7969" style="stroke:#A80036;stroke-width:1.0;" width="10" x="512" y="333.3594"/><rect fill="#FFFFFF" filter="url(#f1owxft4wpoopb)" height="414.8906" style="stroke:#A80036;stroke-width:1.0;" width="10" x="512" y="635.5547"/><rect fill="#FFFFFF" filter="url(#f1owxft4wpoopb)" height="709.7891" style="stroke:#A80036;stroke-width:1.0;" width="10" x="512" y="1142.8438"/><rect fill="#FFFFFF" filter="url(#f1owxft4wpoopb)" height="145.6641" style="stroke:#A80036;stroke-width:1.0;" width="10" x="517" y="1683.9688"/><rect fill="#FFFFFF" filter="url(#f1owxft4wpoopb)" height="87.3984" style="stroke:#A80036;stroke-width:1.0;" width="10" x="785" y="148.5625"/><rect fill="#FFFFFF" filter="url(#f1owxft4wpoopb)" height="156.5313" style="stroke:#A80036;stroke-width:1.0;" width="10" x="785" y="362.4922"/><rect fill="#FFFFFF" filter="url(#f1owxft4wpoopb)" height="40.1328" style="stroke:#A80036;stroke-width:1.0;" width="10" x="790" y="399.625"/><rect fill="#FFFFFF" filter="url(#f1owxft4wpoopb)" height="356.625" style="stroke:#A80036;stroke-width:1.0;" width="10" x="785" y="664.6875"/><rect fill="#FFFFFF" filter="url(#f1owxft4wpoopb)" height="680.6563" style="stroke:#A80036;stroke-width:1.0;" width="10" x="785" y="1171.9766"/><rect fill="#FFFFFF" filter="url(#f1owxft4wpoopb)" height="87.3984" style="stroke:#A80036;stroke-width:1.0;" width="10" x="790" y="1713.1016"/><rect fill="#FFFFFF" filter="url(#f1owxft4wpoopb)" height="20.1641" style="stroke:#A80036;stroke-width:1.0;" width="10" x="1384" y="874.6172"/><rect fill="#FFFFFF" filter="url(#f1owxft4wpoopb)" height="651.5234" style="stroke:#A80036;stroke-width:1.0;" width="10" x="1384" y="1201.1094"/><rect fill="#FFFFFF" filter="url(#f1owxft4wpoopb)" height="40.1328" style="stroke:#A80036;stroke-width:1.0;" width="10" x="1389" y="1320.6406"/><rect fill="#FFFFFF" filter="url(#f1owxft4wpoopb)" height="25" style="stroke:#A80036;stroke-width:1.0;" width="10" x="1389" y="1591.7031"/><rect fill="#FFFFFF" filter="url(#f1owxft4wpoopb)" height="29.1328" style="stroke:#A80036;stroke-width:1.0;" width="10" x="1389" y="1742.2344"/><rect fill="#FFFFFF" filter="url(#f1owxft4wpoopb)" height="29.1328" style="stroke:#A80036;stroke-width:1.0;" width="10" x="1596" y="1230.2422"/><rect fill="#FFFFFF" filter="url(#f1owxft4wpoopb)" height="29.1328" style="stroke:#A80036;stroke-width:1.0;" width="10" x="1690" y="1443.0391"/><rect fill="#FFFFFF" filter="url(#f1owxft4wpoopb)" height="29.1328" style="stroke:#A80036;stroke-width:1.0;" width="10" x="1788" y="1501.3047"/><rect fill="#FFFFFF" filter="url(#f1owxft4wpoopb)" height="29.1328" style="stroke:#A80036;stroke-width:1.0;" width="10" x="1875" y="177.6953"/><rect fill="#FFFFFF" filter="url(#f1owxft4wpoopb)" height="14" style="stroke:#A80036;stroke-width:1.0;" width="10" x="1875" y="475.8906"/><rect fill="#FFFFFF" filter="url(#f1owxft4wpoopb)" height="29.1328" style="stroke:#A80036;stroke-width:1.0;" width="10" x="1875" y="693.8203"/><rect fill="#FFFFFF" filter="url(#f1owxft4wpoopb)" height="29.1328" style="stroke:#A80036;stroke-width:1.0;" width="10" x="2036" y="752.0859"/><rect fill="#FFFFFF" filter="url(#f1owxft4wpoopb)" height="29.1328" style="stroke:#A80036;stroke-width:1.0;" width="10" x="2036" y="963.0469"/><polygon fill="#A80036" points="500,115.4297,510,119.4297,500,123.4297,504,119.4297" style="stroke:#A80036;stroke-width:1.0;"/><line style="stroke:#A80036;stroke-width:1.0;" x1="138" x2="506" y1="119.4297" y2="119.4297"/><text fill="#000000" font-family="sans-serif" font-size="13" lengthAdjust="spacingAndGlyphs" textLength="154" x="145" y="114.3638">getModels(workspaceId)</text><polygon fill="#A80036" points="773,144.5625,783,148.5625,773,152.5625,777,148.5625" style="stroke:#A80036;stroke-width:1.0;"/><line style="stroke:#A80036;stroke-width:1.0;" x1="522" x2="779" y1="148.5625" y2="148.5625"/><text fill="#000000" font-family="sans-serif" font-size="13" lengthAdjust="spacingAndGlyphs" textLength="154" x="529" y="143.4966">getModels(workspaceId)</text><polygon fill="#A80036" points="1863,173.6953,1873,177.6953,1863,181.6953,1867,177.6953" style="stroke:#A80036;stroke-width:1.0;"/><line style="stroke:#A80036;stroke-width:1.0;" x1="795" x2="1869" y1="177.6953" y2="177.6953"/><text fill="#000000" font-family="sans-serif" font-size="13" lengthAdjust="spacingAndGlyphs" textLength="84" x="802" y="172.6294">models.find()</text><polygon fill="#A80036" points="806,202.8281,796,206.8281,806,210.8281,802,206.8281" style="stroke:#A80036;stroke-width:1.0;"/><line style="stroke:#A80036;stroke-width:1.0;stroke-dasharray:2.0,2.0;" x1="800" x2="1879" y1="206.8281" y2="206.8281"/><text fill="#000000" font-family="sans-serif" font-size="13" lengthAdjust="spacingAndGlyphs" textLength="194" x="812" y="201.7622">ml_models: (ObjectId, string)[]</text><polygon fill="#A80036" points="533,231.9609,523,235.9609,533,239.9609,529,235.9609" style="stroke:#A80036;stroke-width:1.0;"/><line style="stroke:#A80036;stroke-width:1.0;stroke-dasharray:2.0,2.0;" x1="527" x2="789" y1="235.9609" y2="235.9609"/><text fill="#000000" font-family="sans-serif" font-size="13" lengthAdjust="spacingAndGlyphs" textLength="194" x="539" y="230.895">ml_models: (ObjectId, string)[]</text><polygon fill="#A80036" points="149,261.0938,139,265.0938,149,269.0938,145,265.0938" style="stroke:#A80036;stroke-width:1.0;"/><line style="stroke:#A80036;stroke-width:1.0;stroke-dasharray:2.0,2.0;" x1="143" x2="516" y1="265.0938" y2="265.0938"/><text fill="#000000" font-family="sans-serif" font-size="13" lengthAdjust="spacingAndGlyphs" textLength="194" x="155" y="260.0278">ml_models: (ObjectId, string)[]</text><path d="M5,278.0938 L5,303.0938 L267,303.0938 L267,288.0938 L257,278.0938 L5,278.0938 " fill="#FBFB77" filter="url(#f1owxft4wpoopb)" style="stroke:#A80036;stroke-width:1.0;"/><path d="M257,278.0938 L257,288.0938 L267,288.0938 L257,278.0938 " fill="#FBFB77" style="stroke:#A80036;stroke-width:1.0;"/><text fill="#000000" font-family="sans-serif" font-size="13" lengthAdjust="spacingAndGlyphs" textLength="241" x="11" y="295.1606">ml_models: (modelId, model_name)[]</text><polygon fill="#A80036" points="500,329.3594,510,333.3594,500,337.3594,504,333.3594" style="stroke:#A80036;stroke-width:1.0;"/><line style="stroke:#A80036;stroke-width:1.0;" x1="138" x2="506" y1="333.3594" y2="333.3594"/><text fill="#000000" font-family="sans-serif" font-size="13" lengthAdjust="spacingAndGlyphs" textLength="244" x="145" y="328.2935">getPredictionId(workspaceID, modelId)</text><polygon fill="#A80036" points="773,358.4922,783,362.4922,773,366.4922,777,362.4922" style="stroke:#A80036;stroke-width:1.0;"/><line style="stroke:#A80036;stroke-width:1.0;" x1="522" x2="779" y1="362.4922" y2="362.4922"/><text fill="#000000" font-family="sans-serif" font-size="13" lengthAdjust="spacingAndGlyphs" textLength="244" x="529" y="357.4263">getPredictionId(workspaceID, modelId)</text><line style="stroke:#A80036;stroke-width:1.0;" x1="795" x2="842" y1="386.625" y2="386.625"/><line style="stroke:#A80036;stroke-width:1.0;" x1="842" x2="842" y1="386.625" y2="399.625"/><line style="stroke:#A80036;stroke-width:1.0;" x1="801" x2="842" y1="399.625" y2="399.625"/><polygon fill="#A80036" points="811,395.625,801,399.625,811,403.625,807,399.625" style="stroke:#A80036;stroke-width:1.0;"/><text fill="#000000" font-family="sans-serif" font-size="13" lengthAdjust="spacingAndGlyphs" textLength="279" x="807" y="381.5591">generatePredictionId(workspaceId, modelId)</text><line style="stroke:#A80036;stroke-width:1.0;stroke-dasharray:2.0,2.0;" x1="800" x2="842" y1="438.7578" y2="438.7578"/><line style="stroke:#A80036;stroke-width:1.0;stroke-dasharray:2.0,2.0;" x1="842" x2="842" y1="438.7578" y2="451.7578"/><line style="stroke:#A80036;stroke-width:1.0;stroke-dasharray:2.0,2.0;" x1="795" x2="842" y1="451.7578" y2="451.7578"/><polygon fill="#A80036" points="805,447.7578,795,451.7578,805,455.7578,801,451.7578" style="stroke:#A80036;stroke-width:1.0;"/><text fill="#000000" font-family="sans-serif" font-size="13" lengthAdjust="spacingAndGlyphs" textLength="118" x="807" y="433.6919">predictionId: string</text><polygon fill="#A80036" points="1863,471.8906,1873,475.8906,1863,479.8906,1867,475.8906" style="stroke:#A80036;stroke-width:1.0;"/><line style="stroke:#A80036;stroke-width:1.0;" x1="795" x2="1869" y1="475.8906" y2="475.8906"/><text fill="#000000" font-family="sans-serif" font-size="13" lengthAdjust="spacingAndGlyphs" textLength="652" x="802" y="470.8247">workspaces.update({"workspaceId": workspaceId}, {$push: {"predictionIds": (predictionId, modelId)}})</text><polygon fill="#A80036" points="806,485.8906,796,489.8906,806,493.8906,802,489.8906" style="stroke:#A80036;stroke-width:1.0;"/><line style="stroke:#A80036;stroke-width:1.0;stroke-dasharray:2.0,2.0;" x1="800" x2="1879" y1="489.8906" y2="489.8906"/><polygon fill="#A80036" points="533,515.0234,523,519.0234,533,523.0234,529,519.0234" style="stroke:#A80036;stroke-width:1.0;"/><line style="stroke:#A80036;stroke-width:1.0;stroke-dasharray:2.0,2.0;" x1="527" x2="789" y1="519.0234" y2="519.0234"/><text fill="#000000" font-family="sans-serif" font-size="13" lengthAdjust="spacingAndGlyphs" textLength="118" x="539" y="513.9575">predictionId: string</text><polygon fill="#A80036" points="149,544.1563,139,548.1563,149,552.1563,145,548.1563" style="stroke:#A80036;stroke-width:1.0;"/><line style="stroke:#A80036;stroke-width:1.0;stroke-dasharray:2.0,2.0;" x1="143" x2="516" y1="548.1563" y2="548.1563"/><text fill="#000000" font-family="sans-serif" font-size="13" lengthAdjust="spacingAndGlyphs" textLength="118" x="155" y="543.0903">predictionId: string</text><polygon fill="#A80036" points="154,573.2891,144,577.2891,154,581.2891,150,577.2891" style="stroke:#A80036;stroke-width:1.0;"/><line style="stroke:#A80036;stroke-width:1.0;" x1="148" x2="284" y1="577.2891" y2="577.2891"/><text fill="#000000" font-family="sans-serif" font-size="13" lengthAdjust="spacingAndGlyphs" textLength="87" x="160" y="572.2231">scan QR code</text><polygon fill="#A80036" points="273,602.4219,283,606.4219,273,610.4219,277,606.4219" style="stroke:#A80036;stroke-width:1.0;"/><line style="stroke:#A80036;stroke-width:1.0;stroke-dasharray:2.0,2.0;" x1="138" x2="279" y1="606.4219" y2="606.4219"/><text fill="#000000" font-family="sans-serif" font-size="13" lengthAdjust="spacingAndGlyphs" textLength="118" x="145" y="601.356">predictionId: string</text><polygon fill="#A80036" points="500,631.5547,510,635.5547,500,639.5547,504,635.5547" style="stroke:#A80036;stroke-width:1.0;"/><line style="stroke:#A80036;stroke-width:1.0;" x1="285" x2="506" y1="635.5547" y2="635.5547"/><text fill="#000000" font-family="sans-serif" font-size="13" lengthAdjust="spacingAndGlyphs" textLength="208" x="292" y="630.4888">getPredictionConfig(predictionId)</text><polygon fill="#A80036" points="773,660.6875,783,664.6875,773,668.6875,777,664.6875" style="stroke:#A80036;stroke-width:1.0;"/><line style="stroke:#A80036;stroke-width:1.0;" x1="522" x2="779" y1="664.6875" y2="664.6875"/><text fill="#000000" font-family="sans-serif" font-size="13" lengthAdjust="spacingAndGlyphs" textLength="208" x="529" y="659.6216">getPredictionConfig(predictionId)</text><polygon fill="#A80036" points="1863,689.8203,1873,693.8203,1863,697.8203,1867,693.8203" style="stroke:#A80036;stroke-width:1.0;"/><line style="stroke:#A80036;stroke-width:1.0;" x1="795" x2="1869" y1="693.8203" y2="693.8203"/><text fill="#000000" font-family="sans-serif" font-size="13" lengthAdjust="spacingAndGlyphs" textLength="331" x="802" y="688.7544">workspaces.find_one({"predictionIds": predictionId})</text><polygon fill="#A80036" points="806,718.9531,796,722.9531,806,726.9531,802,722.9531" style="stroke:#A80036;stroke-width:1.0;"/><line style="stroke:#A80036;stroke-width:1.0;stroke-dasharray:2.0,2.0;" x1="800" x2="1879" y1="722.9531" y2="722.9531"/><text fill="#000000" font-family="sans-serif" font-size="13" lengthAdjust="spacingAndGlyphs" textLength="144" x="812" y="717.8872">workspace: Workspace</text><polygon fill="#A80036" points="2024,748.0859,2034,752.0859,2024,756.0859,2028,752.0859" style="stroke:#A80036;stroke-width:1.0;"/><line style="stroke:#A80036;stroke-width:1.0;" x1="795" x2="2030" y1="752.0859" y2="752.0859"/><text fill="#000000" font-family="sans-serif" font-size="13" lengthAdjust="spacingAndGlyphs" textLength="159" x="802" y="747.02">getLabels(workspace.id))</text><polygon fill="#A80036" points="806,777.2188,796,781.2188,806,785.2188,802,781.2188" style="stroke:#A80036;stroke-width:1.0;"/><line style="stroke:#A80036;stroke-width:1.0;stroke-dasharray:2.0,2.0;" x1="800" x2="2040" y1="781.2188" y2="781.2188"/><text fill="#000000" font-family="sans-serif" font-size="13" lengthAdjust="spacingAndGlyphs" textLength="154" x="812" y="776.1528">(ObjectId, label_name)[]</text><path d="M663,794.2188 L663,819.2188 L912,819.2188 L912,804.2188 L902,794.2188 L663,794.2188 " fill="#FBFB77" filter="url(#f1owxft4wpoopb)" style="stroke:#A80036;stroke-width:1.0;"/><path d="M902,794.2188 L902,804.2188 L912,804.2188 L902,794.2188 " fill="#FBFB77" style="stroke:#A80036;stroke-width:1.0;"/><text fill="#000000" font-family="sans-serif" font-size="13" lengthAdjust="spacingAndGlyphs" textLength="228" x="669" y="811.2856">labels: Map&lt;ObjectId, label_name&gt;</text><polygon fill="#A80036" points="1337,860.6172,1347,864.6172,1337,868.6172,1341,864.6172" style="stroke:#A80036;stroke-width:1.0;"/><line style="stroke:#A80036;stroke-width:1.0;" x1="795" x2="1343" y1="864.6172" y2="864.6172"/><text fill="#000000" font-family="sans-serif" font-size="13" lengthAdjust="spacingAndGlyphs" textLength="530" x="802" y="844.4185">&lt;&lt;create&gt;&gt;Predictor(workspace.imputation_object, workspace.normalizer_object,</text><text fill="#000000" font-family="sans-serif" font-size="13" lengthAdjust="spacingAndGlyphs" textLength="361" x="802" y="859.5513">workspace.classifier_object, workspaces.features, labels)</text><rect fill="#FEFECE" filter="url(#f1owxft4wpoopb)" height="30.2969" style="stroke:#A80036;stroke-width:1.5;" width="76" x="1349" y="828.3516"/><text fill="#000000" font-family="sans-serif" font-size="14" lengthAdjust="spacingAndGlyphs" textLength="62" x="1356" y="848.3467">Predictor</text><polygon fill="#A80036" points="806,890.7813,796,894.7813,806,898.7813,802,894.7813" style="stroke:#A80036;stroke-width:1.0;"/><line style="stroke:#A80036;stroke-width:1.0;stroke-dasharray:2.0,2.0;" x1="800" x2="1388" y1="894.7813" y2="894.7813"/><text fill="#000000" font-family="sans-serif" font-size="13" lengthAdjust="spacingAndGlyphs" textLength="122" x="812" y="889.7153">predictor: Predictor</text><path d="M604,907.7813 L604,932.7813 L971,932.7813 L971,917.7813 L961,907.7813 L604,907.7813 " fill="#FBFB77" filter="url(#f1owxft4wpoopb)" style="stroke:#A80036;stroke-width:1.0;"/><path d="M961,907.7813 L961,917.7813 L971,917.7813 L961,907.7813 " fill="#FBFB77" style="stroke:#A80036;stroke-width:1.0;"/><text fill="#000000" font-family="sans-serif" font-size="13" lengthAdjust="spacingAndGlyphs" textLength="346" x="610" y="924.8481">insert (predictorId, predictor) entry in router.predictors</text><polygon fill="#A80036" points="2024,959.0469,2034,963.0469,2024,967.0469,2028,963.0469" style="stroke:#A80036;stroke-width:1.0;"/><line style="stroke:#A80036;stroke-width:1.0;" x1="795" x2="2030" y1="963.0469" y2="963.0469"/><text fill="#000000" font-family="sans-serif" font-size="13" lengthAdjust="spacingAndGlyphs" textLength="230" x="802" y="957.981">getWorkspaceSensors(workspaceId)</text><polygon fill="#A80036" points="806,988.1797,796,992.1797,806,996.1797,802,992.1797" style="stroke:#A80036;stroke-width:1.0;"/><line style="stroke:#A80036;stroke-width:1.0;stroke-dasharray:2.0,2.0;" x1="800" x2="2040" y1="992.1797" y2="992.1797"/><text fill="#000000" font-family="sans-serif" font-size="13" lengthAdjust="spacingAndGlyphs" textLength="167" x="812" y="987.1138">sensors: (string, integer)[]</text><polygon fill="#A80036" points="533,1017.3125,523,1021.3125,533,1025.3125,529,1021.3125" style="stroke:#A80036;stroke-width:1.0;"/><line style="stroke:#A80036;stroke-width:1.0;stroke-dasharray:2.0,2.0;" x1="527" x2="789" y1="1021.3125" y2="1021.3125"/><text fill="#000000" font-family="sans-serif" font-size="13" lengthAdjust="spacingAndGlyphs" textLength="167" x="539" y="1016.2466">sensors: (string, integer)[]</text><polygon fill="#A80036" points="296,1046.4453,286,1050.4453,296,1054.4453,292,1050.4453" style="stroke:#A80036;stroke-width:1.0;"/><line style="stroke:#A80036;stroke-width:1.0;stroke-dasharray:2.0,2.0;" x1="290" x2="516" y1="1050.4453" y2="1050.4453"/><text fill="#000000" font-family="sans-serif" font-size="13" lengthAdjust="spacingAndGlyphs" textLength="167" x="302" y="1045.3794">sensors: (string, integer)[]</text><path d="M142,1063.4453 L142,1088.4453 L423,1088.4453 L423,1073.4453 L413,1063.4453 L142,1063.4453 " fill="#FBFB77" filter="url(#f1owxft4wpoopb)" style="stroke:#A80036;stroke-width:1.0;"/><path d="M413,1063.4453 L413,1073.4453 L423,1073.4453 L413,1063.4453 " fill="#FBFB77" style="stroke:#A80036;stroke-width:1.0;"/><text fill="#000000" font-family="sans-serif" font-size="13" lengthAdjust="spacingAndGlyphs" textLength="260" x="148" y="1080.5122">sensors: (sensor_name, samplingRate)[]</text><path d="M220,1104.5781 L297,1104.5781 L297,1111.5781 L287,1121.5781 L220,1121.5781 L220,1104.5781 " fill="#EEEEEE" style="stroke:#000000;stroke-width:1.0;"/><rect fill="none" height="740.0547" style="stroke:#000000;stroke-width:2.0;" width="1624" x="220" y="1104.5781"/><text fill="#000000" font-family="sans-serif" font-size="13" font-weight="bold" lengthAdjust="spacingAndGlyphs" textLength="32" x="235" y="1117.645">loop</text><text fill="#000000" font-family="sans-serif" font-size="11" font-weight="bold" lengthAdjust="spacingAndGlyphs" textLength="217" x="312" y="1116.7886">[while MobileClient submits data]</text><polygon fill="#A80036" points="500,1138.8438,510,1142.8438,500,1146.8438,504,1142.8438" style="stroke:#A80036;stroke-width:1.0;"/><line style="stroke:#A80036;stroke-width:1.0;" x1="285" x2="506" y1="1142.8438" y2="1142.8438"/><text fill="#000000" font-family="sans-serif" font-size="13" lengthAdjust="spacingAndGlyphs" textLength="196" x="292" y="1137.7778">submitData(predictionId, data)</text><polygon fill="#A80036" points="773,1167.9766,783,1171.9766,773,1175.9766,777,1171.9766" style="stroke:#A80036;stroke-width:1.0;"/><line style="stroke:#A80036;stroke-width:1.0;" x1="522" x2="779" y1="1171.9766" y2="1171.9766"/><text fill="#000000" font-family="sans-serif" font-size="13" lengthAdjust="spacingAndGlyphs" textLength="196" x="529" y="1166.9106">submitData(predictionId, data)</text><polygon fill="#A80036" points="1372,1197.1094,1382,1201.1094,1372,1205.1094,1376,1201.1094" style="stroke:#A80036;stroke-width:1.0;"/><line style="stroke:#A80036;stroke-width:1.0;" x1="795" x2="1378" y1="1201.1094" y2="1201.1094"/><text fill="#000000" font-family="sans-serif" font-size="13" lengthAdjust="spacingAndGlyphs" textLength="83" x="802" y="1196.0435">predict(data)</text><polygon fill="#A80036" points="1584,1226.2422,1594,1230.2422,1584,1234.2422,1588,1230.2422" style="stroke:#A80036;stroke-width:1.0;"/><line style="stroke:#A80036;stroke-width:1.0;" x1="1394" x2="1590" y1="1230.2422" y2="1230.2422"/><text fill="#000000" font-family="sans-serif" font-size="13" lengthAdjust="spacingAndGlyphs" textLength="102" x="1401" y="1225.1763">transform(data)</text><polygon fill="#A80036" points="1405,1255.375,1395,1259.375,1405,1263.375,1401,1259.375" style="stroke:#A80036;stroke-width:1.0;"/><line style="stroke:#A80036;stroke-width:1.0;stroke-dasharray:2.0,2.0;" x1="1399" x2="1600" y1="1259.375" y2="1259.375"/><text fill="#000000" font-family="sans-serif" font-size="13" lengthAdjust="spacingAndGlyphs" textLength="119" x="1411" y="1254.3091">data: DataFrame[]</text><path d="M1339,1274.375 L1416,1274.375 L1416,1281.375 L1406,1291.375 L1339,1291.375 L1339,1274.375 " fill="#EEEEEE" style="stroke:#000000;stroke-width:1.0;"/><rect fill="none" height="101.3984" style="stroke:#000000;stroke-width:2.0;" width="266" x="1339" y="1274.375"/><text fill="#000000" font-family="sans-serif" font-size="13" font-weight="bold" lengthAdjust="spacingAndGlyphs" textLength="32" x="1354" y="1287.4419">loop</text><text fill="#000000" font-family="sans-serif" font-size="11" font-weight="bold" lengthAdjust="spacingAndGlyphs" textLength="123" x="1431" y="1286.5854">[feature : features]</text><line style="stroke:#A80036;stroke-width:1.0;" x1="1394" x2="1441" y1="1307.6406" y2="1307.6406"/><line style="stroke:#A80036;stroke-width:1.0;" x1="1441" x2="1441" y1="1307.6406" y2="1320.6406"/><line style="stroke:#A80036;stroke-width:1.0;" x1="1400" x2="1441" y1="1320.6406" y2="1320.6406"/><polygon fill="#A80036" points="1410,1316.6406,1400,1320.6406,1410,1324.6406,1406,1320.6406" style="stroke:#A80036;stroke-width:1.0;"/><text fill="#000000" font-family="sans-serif" font-size="13" lengthAdjust="spacingAndGlyphs" textLength="187" x="1406" y="1302.5747">extractFeature(data, feature)</text><line style="stroke:#A80036;stroke-width:1.0;stroke-dasharray:2.0,2.0;" x1="1399" x2="1441" y1="1359.7734" y2="1359.7734"/><line style="stroke:#A80036;stroke-width:1.0;stroke-dasharray:2.0,2.0;" x1="1441" x2="1441" y1="1359.7734" y2="1372.7734"/><line style="stroke:#A80036;stroke-width:1.0;stroke-dasharray:2.0,2.0;" x1="1394" x2="1441" y1="1372.7734" y2="1372.7734"/><polygon fill="#A80036" points="1404,1368.7734,1394,1372.7734,1404,1376.7734,1400,1372.7734" style="stroke:#A80036;stroke-width:1.0;"/><text fill="#000000" font-family="sans-serif" font-size="13" lengthAdjust="spacingAndGlyphs" textLength="109" x="1406" y="1354.7075">data: DataFrame</text><path d="M1189,1387.7734 L1189,1412.7734 L1585,1412.7734 L1585,1397.7734 L1575,1387.7734 L1189,1387.7734 " fill="#FBFB77" filter="url(#f1owxft4wpoopb)" style="stroke:#A80036;stroke-width:1.0;"/><path d="M1575,1387.7734 L1575,1397.7734 L1585,1397.7734 L1575,1387.7734 " fill="#FBFB77" style="stroke:#A80036;stroke-width:1.0;"/><text fill="#000000" font-family="sans-serif" font-size="13" lengthAdjust="spacingAndGlyphs" textLength="375" x="1195" y="1404.8403">dataframes of all features in one DataFrame instance data</text><polygon fill="#A80036" points="1678,1439.0391,1688,1443.0391,1678,1447.0391,1682,1443.0391" style="stroke:#A80036;stroke-width:1.0;"/><line style="stroke:#A80036;stroke-width:1.0;" x1="1394" x2="1684" y1="1443.0391" y2="1443.0391"/><text fill="#000000" font-family="sans-serif" font-size="13" lengthAdjust="spacingAndGlyphs" textLength="102" x="1401" y="1437.9731">transform(data)</text><polygon fill="#A80036" points="1405,1468.1719,1395,1472.1719,1405,1476.1719,1401,1472.1719" style="stroke:#A80036;stroke-width:1.0;"/><line style="stroke:#A80036;stroke-width:1.0;stroke-dasharray:2.0,2.0;" x1="1399" x2="1694" y1="1472.1719" y2="1472.1719"/><text fill="#000000" font-family="sans-serif" font-size="13" lengthAdjust="spacingAndGlyphs" textLength="109" x="1411" y="1467.106">data: DataFrame</text><polygon fill="#A80036" points="1776,1497.3047,1786,1501.3047,1776,1505.3047,1780,1501.3047" style="stroke:#A80036;stroke-width:1.0;"/><line style="stroke:#A80036;stroke-width:1.0;" x1="1394" x2="1782" y1="1501.3047" y2="1501.3047"/><text fill="#000000" font-family="sans-serif" font-size="13" lengthAdjust="spacingAndGlyphs" textLength="83" x="1401" y="1496.2388">predict(data)</text><polygon fill="#A80036" points="1405,1526.4375,1395,1530.4375,1405,1534.4375,1401,1530.4375" style="stroke:#A80036;stroke-width:1.0;"/><line style="stroke:#A80036;stroke-width:1.0;stroke-dasharray:2.0,2.0;" x1="1399" x2="1792" y1="1530.4375" y2="1530.4375"/><text fill="#000000" font-family="sans-serif" font-size="13" lengthAdjust="spacingAndGlyphs" textLength="140" x="1411" y="1525.3716">predictions: ObjectId[]</text><path d="M1339,1545.4375 L1416,1545.4375 L1416,1552.4375 L1406,1562.4375 L1339,1562.4375 L1339,1545.4375 " fill="#EEEEEE" style="stroke:#000000;stroke-width:1.0;"/><rect fill="none" height="86.2656" style="stroke:#000000;stroke-width:2.0;" width="267" x="1339" y="1545.4375"/><text fill="#000000" font-family="sans-serif" font-size="13" font-weight="bold" lengthAdjust="spacingAndGlyphs" textLength="32" x="1354" y="1558.5044">loop</text><text fill="#000000" font-family="sans-serif" font-size="11" font-weight="bold" lengthAdjust="spacingAndGlyphs" textLength="146" x="1431" y="1557.6479">[labelId in predictions]</text><line style="stroke:#A80036;stroke-width:1.0;" x1="1394" x2="1441" y1="1578.7031" y2="1578.7031"/><line style="stroke:#A80036;stroke-width:1.0;" x1="1441" x2="1441" y1="1578.7031" y2="1591.7031"/><line style="stroke:#A80036;stroke-width:1.0;" x1="1400" x2="1441" y1="1591.7031" y2="1591.7031"/><polygon fill="#A80036" points="1410,1587.7031,1400,1591.7031,1410,1595.7031,1406,1591.7031" style="stroke:#A80036;stroke-width:1.0;"/><text fill="#000000" font-family="sans-serif" font-size="13" lengthAdjust="spacingAndGlyphs" textLength="188" x="1406" y="1573.6372">incrementLabelCount(labelId)</text><line style="stroke:#A80036;stroke-width:1.0;stroke-dasharray:2.0,2.0;" x1="1399" x2="1441" y1="1615.7031" y2="1615.7031"/><line style="stroke:#A80036;stroke-width:1.0;stroke-dasharray:2.0,2.0;" x1="1441" x2="1441" y1="1615.7031" y2="1628.7031"/><line style="stroke:#A80036;stroke-width:1.0;stroke-dasharray:2.0,2.0;" x1="1394" x2="1441" y1="1628.7031" y2="1628.7031"/><polygon fill="#A80036" points="1404,1624.7031,1394,1628.7031,1404,1632.7031,1400,1628.7031" style="stroke:#A80036;stroke-width:1.0;"/><path d="M230,1645.7031 L300,1645.7031 L300,1652.7031 L290,1662.7031 L230,1662.7031 L230,1645.7031 " fill="#EEEEEE" style="stroke:#000000;stroke-width:1.0;"/><rect fill="none" height="191.9297" style="stroke:#000000;stroke-width:2.0;" width="1209" x="230" y="1645.7031"/><text fill="#000000" font-family="sans-serif" font-size="13" font-weight="bold" lengthAdjust="spacingAndGlyphs" textLength="25" x="245" y="1658.77">opt</text><text fill="#000000" font-family="sans-serif" font-size="11" font-weight="bold" lengthAdjust="spacingAndGlyphs" textLength="314" x="315" y="1657.9136">[MobileClient requests most frequent prediction]</text><polygon fill="#A80036" points="505,1679.9688,515,1683.9688,505,1687.9688,509,1683.9688" style="stroke:#A80036;stroke-width:1.0;"/><line style="stroke:#A80036;stroke-width:1.0;" x1="285" x2="511" y1="1683.9688" y2="1683.9688"/><text fill="#000000" font-family="sans-serif" font-size="13" lengthAdjust="spacingAndGlyphs" textLength="168" x="292" y="1678.9028">getPrediction(predictionId)</text><polygon fill="#A80036" points="778,1709.1016,788,1713.1016,778,1717.1016,782,1713.1016" style="stroke:#A80036;stroke-width:1.0;"/><line style="stroke:#A80036;stroke-width:1.0;" x1="527" x2="784" y1="1713.1016" y2="1713.1016"/><text fill="#000000" font-family="sans-serif" font-size="13" lengthAdjust="spacingAndGlyphs" textLength="168" x="534" y="1708.0356">getPrediction(predictionId)</text><polygon fill="#A80036" points="1377,1738.2344,1387,1742.2344,1377,1746.2344,1381,1742.2344" style="stroke:#A80036;stroke-width:1.0;"/><line style="stroke:#A80036;stroke-width:1.0;" x1="800" x2="1383" y1="1742.2344" y2="1742.2344"/><text fill="#000000" font-family="sans-serif" font-size="13" lengthAdjust="spacingAndGlyphs" textLength="243" x="807" y="1737.1685">getMostFrequentPredictionAndReset()</text><polygon fill="#A80036" points="811,1767.3672,801,1771.3672,811,1775.3672,807,1771.3672" style="stroke:#A80036;stroke-width:1.0;"/><line style="stroke:#A80036;stroke-width:1.0;stroke-dasharray:2.0,2.0;" x1="805" x2="1383" y1="1771.3672" y2="1771.3672"/><text fill="#000000" font-family="sans-serif" font-size="13" lengthAdjust="spacingAndGlyphs" textLength="118" x="817" y="1766.3013">label_name: string</text><polygon fill="#A80036" points="538,1796.5,528,1800.5,538,1804.5,534,1800.5" style="stroke:#A80036;stroke-width:1.0;"/><line style="stroke:#A80036;stroke-width:1.0;stroke-dasharray:2.0,2.0;" x1="532" x2="784" y1="1800.5" y2="1800.5"/><text fill="#000000" font-family="sans-serif" font-size="13" lengthAdjust="spacingAndGlyphs" textLength="118" x="544" y="1795.4341">label_name: string</text><polygon fill="#A80036" points="296,1825.6328,286,1829.6328,296,1833.6328,292,1829.6328" style="stroke:#A80036;stroke-width:1.0;"/><line style="stroke:#A80036;stroke-width:1.0;stroke-dasharray:2.0,2.0;" x1="290" x2="511" y1="1829.6328" y2="1829.6328"/><text fill="#000000" font-family="sans-serif" font-size="13" lengthAdjust="spacingAndGlyphs" textLength="118" x="302" y="1824.5669">label_name: string</text><!--MD5=[91fbb6f6e268a927a6536d9b113f7ae7]
@startuml Mobile Client - Classifying Actions
autoactivate on

actor DesktopClient
actor MobileClient
participant App
participant Router
participant Predictor
participant IImputer
participant INormalizer
participant IClassifier
database Database
box "External Server"
participant WorkspaceManagementServer
end box

DesktopClient -> App: getModels(workspaceId)
App -> Router: getModels(workspaceId)
Router -> Database: models.find()
return ml_models: (ObjectId, string)[]
return ml_models: (ObjectId, string)[]
return ml_models: (ObjectId, string)[]

note over DesktopClient
    ml_models: (modelId, model_name)[]
end note

DesktopClient -> App: getPredictionId(workspaceID, modelId)
App -> Router: getPredictionId(workspaceID, modelId)
Router -> Router: generatePredictionId(workspaceId, modelId)
return predictionId: string
Router -> Database: workspaces.update({"workspaceId": workspaceId}, {$push: {"predictionIds": (predictionId, modelId)}})
return
return predictionId: string
return predictionId: string

MobileClient -> DesktopClient: scan QR code
return predictionId: string

MobileClient -> App: getPredictionConfig(predictionId)
App -> Router : getPredictionConfig(predictionId)
Router -> Database: workspaces.find_one({"predictionIds": predictionId})
return workspace: Workspace
Router -> WorkspaceManagementServer: getLabels(workspace.id))
return (ObjectId, label_name)[]
note over Router
    labels: Map<ObjectId, label_name>
end note
create Predictor
Router -> Predictor: <<create>>Predictor(workspace.imputation_object, workspace.normalizer_object,\nworkspace.classifier_object, workspaces.features, labels)
return predictor: Predictor
note over Router
    insert (predictorId, predictor) entry in router.predictors
end note
Router -> WorkspaceManagementServer: getWorkspaceSensors(workspaceId)
return sensors: (string, integer)[]
return sensors: (string, integer)[]
return sensors: (string, integer)[]

note over MobileClient
    sensors: (sensor_name, samplingRate)[]
end note

loop while MobileClient submits data
    MobileClient -> App: submitData(predictionId, data)
    App -> Router: submitData(predictionId, data)
    Router -> Predictor: predict(data)
    Predictor -> IImputer: transform(data)
    return data: DataFrame[]
    
    loop feature : features
        Predictor -> Predictor: extractFeature(data, feature)
        return data: DataFrame
    end
    note over Predictor
        dataframes of all features in one DataFrame instance data
    end note

    Predictor -> INormalizer: transform(data)
    return data: DataFrame
    Predictor -> IClassifier: predict(data)
    return predictions: ObjectId[]

    loop labelId in predictions
        Predictor -> Predictor: incrementLabelCount(labelId)
        return
    end

    opt MobileClient requests most frequent prediction
        MobileClient -> App: getPrediction(predictionId)
        App -> Router: getPrediction(predictionId)
        Router -> Predictor: getMostFrequentPredictionAndReset()
        return label_name: string
        return label_name: string
        return label_name: string
    end
end

@enduml

PlantUML version 1.2020.22(Sun Dec 06 12:36:27 EET 2020)
(GPL source distribution)
Java Runtime: Java(TM) SE Runtime Environment
JVM: Java HotSpot(TM) 64-Bit Server VM
Default Encoding: UTF-8
Language: en
Country: US
--></g></svg>