<?xml version="1.0" encoding="UTF-8" standalone="no"?><svg xmlns="http://www.w3.org/2000/svg" xmlns:xlink="http://www.w3.org/1999/xlink" contentScriptType="application/ecmascript" contentStyleType="text/css" height="455px" preserveAspectRatio="none" style="width:549px;height:455px;" version="1.1" viewBox="0 0 549 455" width="549px" zoomAndPan="magnify"><defs><filter height="300%" id="fedy55ts9ds8y" width="300%" x="-1" y="-1"><feGaussianBlur result="blurOut" stdDeviation="2.0"/><feColorMatrix in="blurOut" result="blurOut2" type="matrix" values="0 0 0 0 0 0 0 0 0 0 0 0 0 0 0 0 0 0 .4 0"/><feOffset dx="4.0" dy="4.0" in="blurOut2" result="blurOut3"/><feBlend in="SourceGraphic" in2="blurOut3" mode="normal"/></filter></defs><g><rect fill="#FFFFFF" filter="url(#fedy55ts9ds8y)" height="30" style="stroke:#A80036;stroke-width:1.0;" width="10" x="178.5" y="119.4297"/><rect fill="#FFFFFF" filter="url(#fedy55ts9ds8y)" height="29.1328" style="stroke:#A80036;stroke-width:1.0;" width="10" x="178.5" y="178.5625"/><rect fill="#FFFFFF" filter="url(#fedy55ts9ds8y)" height="125.5313" style="stroke:#A80036;stroke-width:1.0;" width="10" x="178.5" y="236.8281"/><rect fill="#FFFFFF" filter="url(#fedy55ts9ds8y)" height="87.3984" style="stroke:#A80036;stroke-width:1.0;" width="10" x="471.5" y="265.9609"/><rect fill="#FFFFFF" filter="url(#fedy55ts9ds8y)" height="29.1328" style="stroke:#A80036;stroke-width:1.0;" width="10" x="476.5" y="295.0938"/><line style="stroke:#A80036;stroke-width:1.0;stroke-dasharray:5.0,5.0;" x1="23" x2="23" y1="88.2969" y2="371.3594"/><line style="stroke:#A80036;stroke-width:1.0;stroke-dasharray:5.0,5.0;" x1="183" x2="183" y1="88.2969" y2="371.3594"/><line style="stroke:#A80036;stroke-width:1.0;stroke-dasharray:5.0,5.0;" x1="476" x2="476" y1="88.2969" y2="371.3594"/><text fill="#000000" font-family="sans-serif" font-size="14" lengthAdjust="spacing" textLength="31" x="5" y="84.9951">User</text><ellipse cx="23.5" cy="15" fill="#FEFECE" filter="url(#fedy55ts9ds8y)" rx="8" ry="8" style="stroke:#A80036;stroke-width:2.0;"/><path d="M23.5,23 L23.5,50 M10.5,31 L36.5,31 M23.5,50 L10.5,65 M23.5,50 L36.5,65 " fill="none" filter="url(#fedy55ts9ds8y)" style="stroke:#A80036;stroke-width:2.0;"/><text fill="#000000" font-family="sans-serif" font-size="14" lengthAdjust="spacing" textLength="31" x="5" y="383.3545">User</text><ellipse cx="23.5" cy="396.6563" fill="#FEFECE" filter="url(#fedy55ts9ds8y)" rx="8" ry="8" style="stroke:#A80036;stroke-width:2.0;"/><path d="M23.5,404.6563 L23.5,431.6563 M10.5,412.6563 L36.5,412.6563 M23.5,431.6563 L10.5,446.6563 M23.5,431.6563 L36.5,446.6563 " fill="none" filter="url(#fedy55ts9ds8y)" style="stroke:#A80036;stroke-width:2.0;"/><rect fill="#FEFECE" filter="url(#fedy55ts9ds8y)" height="46.5938" style="stroke:#A80036;stroke-width:1.5;" width="113" x="125" y="36.7031"/><text fill="#000000" font-family="sans-serif" font-size="14" font-style="italic" lengthAdjust="spacing" textLength="99" x="132" y="56.6982">«component»</text><text fill="#000000" font-family="sans-serif" font-size="14" lengthAdjust="spacing" textLength="74" x="144.5" y="72.9951">LoginPage</text><rect fill="#FEFECE" filter="url(#fedy55ts9ds8y)" height="46.5938" style="stroke:#A80036;stroke-width:1.5;" width="113" x="125" y="370.3594"/><text fill="#000000" font-family="sans-serif" font-size="14" font-style="italic" lengthAdjust="spacing" textLength="99" x="132" y="390.3545">«component»</text><text fill="#000000" font-family="sans-serif" font-size="14" lengthAdjust="spacing" textLength="74" x="144.5" y="406.6514">LoginPage</text><rect fill="#FEFECE" filter="url(#fedy55ts9ds8y)" height="30.2969" style="stroke:#A80036;stroke-width:1.5;" width="37" x="456" y="53"/><text fill="#000000" font-family="sans-serif" font-size="14" lengthAdjust="spacing" textLength="23" x="463" y="72.9951">API</text><rect fill="#FEFECE" filter="url(#fedy55ts9ds8y)" height="30.2969" style="stroke:#A80036;stroke-width:1.5;" width="37" x="456" y="370.3594"/><text fill="#000000" font-family="sans-serif" font-size="14" lengthAdjust="spacing" textLength="23" x="463" y="390.3545">API</text><rect fill="#FFFFFF" filter="url(#fedy55ts9ds8y)" height="30" style="stroke:#A80036;stroke-width:1.0;" width="10" x="178.5" y="119.4297"/><rect fill="#FFFFFF" filter="url(#fedy55ts9ds8y)" height="29.1328" style="stroke:#A80036;stroke-width:1.0;" width="10" x="178.5" y="178.5625"/><rect fill="#FFFFFF" filter="url(#fedy55ts9ds8y)" height="125.5313" style="stroke:#A80036;stroke-width:1.0;" width="10" x="178.5" y="236.8281"/><rect fill="#FFFFFF" filter="url(#fedy55ts9ds8y)" height="87.3984" style="stroke:#A80036;stroke-width:1.0;" width="10" x="471.5" y="265.9609"/><rect fill="#FFFFFF" filter="url(#fedy55ts9ds8y)" height="29.1328" style="stroke:#A80036;stroke-width:1.0;" width="10" x="476.5" y="295.0938"/><polygon fill="#A80036" points="166.5,115.4297,176.5,119.4297,166.5,123.4297,170.5,119.4297" style="stroke:#A80036;stroke-width:1.0;"/><line style="stroke:#A80036;stroke-width:1.0;" x1="23.5" x2="172.5" y1="119.4297" y2="119.4297"/><text fill="#000000" font-family="sans-serif" font-size="13" lengthAdjust="spacing" textLength="103" x="30.5" y="114.3638">enter username</text><polygon fill="#A80036" points="166.5,174.5625,176.5,178.5625,166.5,182.5625,170.5,178.5625" style="stroke:#A80036;stroke-width:1.0;"/><line style="stroke:#A80036;stroke-width:1.0;" x1="23.5" x2="172.5" y1="178.5625" y2="178.5625"/><text fill="#000000" font-family="sans-serif" font-size="13" lengthAdjust="spacing" textLength="100" x="30.5" y="173.4966">enter password</text><polygon fill="#A80036" points="34.5,203.6953,24.5,207.6953,34.5,211.6953,30.5,207.6953" style="stroke:#A80036;stroke-width:1.0;"/><line style="stroke:#A80036;stroke-width:1.0;stroke-dasharray:2.0,2.0;" x1="28.5" x2="182.5" y1="207.6953" y2="207.6953"/><text fill="#000000" font-family="sans-serif" font-size="13" lengthAdjust="spacing" textLength="131" x="40.5" y="202.6294">login button enabled</text><polygon fill="#A80036" points="166.5,232.8281,176.5,236.8281,166.5,240.8281,170.5,236.8281" style="stroke:#A80036;stroke-width:1.0;"/><line style="stroke:#A80036;stroke-width:1.0;" x1="23.5" x2="172.5" y1="236.8281" y2="236.8281"/><text fill="#000000" font-family="sans-serif" font-size="13" lengthAdjust="spacing" textLength="107" x="30.5" y="231.7622">click login button</text><polygon fill="#A80036" points="459.5,261.9609,469.5,265.9609,459.5,269.9609,463.5,265.9609" style="stroke:#A80036;stroke-width:1.0;"/><line style="stroke:#A80036;stroke-width:1.0;" x1="188.5" x2="465.5" y1="265.9609" y2="265.9609"/><text fill="#000000" font-family="sans-serif" font-size="13" lengthAdjust="spacing" textLength="264" x="195.5" y="260.895">auth(username: string, password: string)</text><polygon fill="#A80036" points="531.5,291.0938,541.5,295.0938,531.5,299.0938,535.5,295.0938" style="stroke:#A80036;stroke-width:1.0;"/><line style="stroke:#A80036;stroke-width:1.0;" x1="486.5" x2="537.5" y1="295.0938" y2="295.0938"/><text fill="#000000" font-family="sans-serif" font-size="13" lengthAdjust="spacing" textLength="33" x="493.5" y="290.0278">REST</text><polygon fill="#A80036" points="492.5,320.2266,482.5,324.2266,492.5,328.2266,488.5,324.2266" style="stroke:#A80036;stroke-width:1.0;"/><line style="stroke:#A80036;stroke-width:1.0;stroke-dasharray:2.0,2.0;" x1="486.5" x2="542.5" y1="324.2266" y2="324.2266"/><text fill="#000000" font-family="sans-serif" font-size="13" lengthAdjust="spacing" textLength="36" x="498.5" y="319.1606">token</text><polygon fill="#A80036" points="199.5,349.3594,189.5,353.3594,199.5,357.3594,195.5,353.3594" style="stroke:#A80036;stroke-width:1.0;"/><line style="stroke:#A80036;stroke-width:1.0;stroke-dasharray:2.0,2.0;" x1="193.5" x2="475.5" y1="353.3594" y2="353.3594"/><text fill="#000000" font-family="sans-serif" font-size="13" lengthAdjust="spacing" textLength="51" x="205.5" y="348.2935">success</text><!--MD5=[724e009105551e369cd6925f0f562575]
@startuml
autoactivate on

actor User as u
participant LoginPage as lp << component >>
participant API as api

u -> lp: enter username
deactivate
u -> lp: enter password
return login button enabled

u -> lp: click login button
lp -> api: auth(username: string, password: string)
api ->]: REST
return token
return success
@enduml

PlantUML version 1.2021.01beta3(Unknown compile time)
(GPL source distribution)
Java Runtime: Java(TM) SE Runtime Environment
JVM: Java HotSpot(TM) 64-Bit Server VM
Default Encoding: UTF-8
Language: en
Country: US
--></g></svg>