<?xml version="1.0" encoding="UTF-8" standalone="no"?><svg xmlns="http://www.w3.org/2000/svg" xmlns:xlink="http://www.w3.org/1999/xlink" contentScriptType="application/ecmascript" contentStyleType="text/css" height="1982px" preserveAspectRatio="none" style="width:1225px;height:1982px;" version="1.1" viewBox="0 0 1225 1982" width="1225px" zoomAndPan="magnify"><defs><filter height="300%" id="f14k1win8mbbt4" width="300%" x="-1" y="-1"><feGaussianBlur result="blurOut" stdDeviation="2.0"/><feColorMatrix in="blurOut" result="blurOut2" type="matrix" values="0 0 0 0 0 0 0 0 0 0 0 0 0 0 0 0 0 0 .4 0"/><feOffset dx="4.0" dy="4.0" in="blurOut2" result="blurOut3"/><feBlend in="SourceGraphic" in2="blurOut3" mode="normal"/></filter></defs><g><rect fill="#FFFFFF" filter="url(#f14k1win8mbbt4)" height="1769.5703" style="stroke:#A80036;stroke-width:1.0;" width="10" x="195.5" y="119.4297"/><rect fill="#FFFFFF" filter="url(#f14k1win8mbbt4)" height="29.1328" style="stroke:#A80036;stroke-width:1.0;" width="10" x="530.5" y="148.5625"/><rect fill="#FFFFFF" filter="url(#f14k1win8mbbt4)" height="29.1328" style="stroke:#A80036;stroke-width:1.0;" width="10" x="530.5" y="206.8281"/><rect fill="#FFFFFF" filter="url(#f14k1win8mbbt4)" height="29.1328" style="stroke:#A80036;stroke-width:1.0;" width="10" x="530.5" y="265.0938"/><rect fill="#FFFFFF" filter="url(#f14k1win8mbbt4)" height="29.1328" style="stroke:#A80036;stroke-width:1.0;" width="10" x="724.5" y="373.3594"/><rect fill="#FFFFFF" filter="url(#f14k1win8mbbt4)" height="29.1328" style="stroke:#A80036;stroke-width:1.0;" width="10" x="724.5" y="431.625"/><rect fill="#FFFFFF" filter="url(#f14k1win8mbbt4)" height="29.1328" style="stroke:#A80036;stroke-width:1.0;" width="10" x="724.5" y="489.8906"/><rect fill="#FFFFFF" filter="url(#f14k1win8mbbt4)" height="29.1328" style="stroke:#A80036;stroke-width:1.0;" width="10" x="724.5" y="548.1563"/><rect fill="#FFFFFF" filter="url(#f14k1win8mbbt4)" height="29.1328" style="stroke:#A80036;stroke-width:1.0;" width="10" x="724.5" y="606.4219"/><rect fill="#FFFFFF" filter="url(#f14k1win8mbbt4)" height="29.1328" style="stroke:#A80036;stroke-width:1.0;" width="10" x="724.5" y="664.6875"/><rect fill="#FFFFFF" filter="url(#f14k1win8mbbt4)" height="29.1328" style="stroke:#A80036;stroke-width:1.0;" width="10" x="724.5" y="722.9531"/><rect fill="#FFFFFF" filter="url(#f14k1win8mbbt4)" height="29.1328" style="stroke:#A80036;stroke-width:1.0;" width="10" x="724.5" y="781.2188"/><rect fill="#FFFFFF" filter="url(#f14k1win8mbbt4)" height="29.1328" style="stroke:#A80036;stroke-width:1.0;" width="10" x="724.5" y="839.4844"/><rect fill="#FFFFFF" filter="url(#f14k1win8mbbt4)" height="29.1328" style="stroke:#A80036;stroke-width:1.0;" width="10" x="724.5" y="897.75"/><rect fill="#FFFFFF" filter="url(#f14k1win8mbbt4)" height="29.1328" style="stroke:#A80036;stroke-width:1.0;" width="10" x="724.5" y="956.0156"/><rect fill="#FFFFFF" filter="url(#f14k1win8mbbt4)" height="29.1328" style="stroke:#A80036;stroke-width:1.0;" width="10" x="724.5" y="1014.2813"/><rect fill="#FFFFFF" filter="url(#f14k1win8mbbt4)" height="29.1328" style="stroke:#A80036;stroke-width:1.0;" width="10" x="724.5" y="1072.5469"/><rect fill="#FFFFFF" filter="url(#f14k1win8mbbt4)" height="29.1328" style="stroke:#A80036;stroke-width:1.0;" width="10" x="724.5" y="1130.8125"/><rect fill="#FFFFFF" filter="url(#f14k1win8mbbt4)" height="29.1328" style="stroke:#A80036;stroke-width:1.0;" width="10" x="724.5" y="1189.0781"/><rect fill="#FFFFFF" filter="url(#f14k1win8mbbt4)" height="29.1328" style="stroke:#A80036;stroke-width:1.0;" width="10" x="724.5" y="1276.4766"/><rect fill="#FFFFFF" filter="url(#f14k1win8mbbt4)" height="29.1328" style="stroke:#A80036;stroke-width:1.0;" width="10" x="724.5" y="1334.7422"/><rect fill="#FFFFFF" filter="url(#f14k1win8mbbt4)" height="641.6563" style="stroke:#A80036;stroke-width:1.0;" width="10" x="1004.5" y="1247.3438"/><rect fill="#FFFFFF" filter="url(#f14k1win8mbbt4)" height="29.1328" style="stroke:#A80036;stroke-width:1.0;" width="10" x="1135" y="1443.0078"/><rect fill="#FFFFFF" filter="url(#f14k1win8mbbt4)" height="29.1328" style="stroke:#A80036;stroke-width:1.0;" width="10" x="1135" y="1501.2734"/><rect fill="#FFFFFF" filter="url(#f14k1win8mbbt4)" height="29.1328" style="stroke:#A80036;stroke-width:1.0;" width="10" x="1135" y="1559.5391"/><rect fill="#FFFFFF" filter="url(#f14k1win8mbbt4)" height="29.1328" style="stroke:#A80036;stroke-width:1.0;" width="10" x="1135" y="1617.8047"/><rect fill="#FFFFFF" filter="url(#f14k1win8mbbt4)" height="29.1328" style="stroke:#A80036;stroke-width:1.0;" width="10" x="1135" y="1676.0703"/><rect fill="#FFFFFF" filter="url(#f14k1win8mbbt4)" height="29.1328" style="stroke:#A80036;stroke-width:1.0;" width="10" x="1135" y="1734.3359"/><rect fill="#FFFFFF" filter="url(#f14k1win8mbbt4)" height="29.1328" style="stroke:#A80036;stroke-width:1.0;" width="10" x="1135" y="1792.6016"/><rect fill="#FFFFFF" filter="url(#f14k1win8mbbt4)" height="29.1328" style="stroke:#A80036;stroke-width:1.0;" width="10" x="1135" y="1850.8672"/><line style="stroke:#A80036;stroke-width:1.0;stroke-dasharray:5.0,5.0;" x1="27" x2="27" y1="88.2969" y2="1898"/><line style="stroke:#A80036;stroke-width:1.0;stroke-dasharray:5.0,5.0;" x1="200.5" x2="200.5" y1="88.2969" y2="1898"/><line style="stroke:#A80036;stroke-width:1.0;stroke-dasharray:5.0,5.0;" x1="535.5" x2="535.5" y1="88.2969" y2="1898"/><line style="stroke:#A80036;stroke-width:1.0;stroke-dasharray:5.0,5.0;" x1="729.5" x2="729.5" y1="88.2969" y2="1898"/><line style="stroke:#A80036;stroke-width:1.0;stroke-dasharray:5.0,5.0;" x1="1009.5" x2="1009.5" y1="88.2969" y2="1898"/><line style="stroke:#A80036;stroke-width:1.0;stroke-dasharray:5.0,5.0;" x1="1139.5" x2="1139.5" y1="88.2969" y2="1898"/><text fill="#000000" font-family="sans-serif" font-size="14" lengthAdjust="spacingAndGlyphs" textLength="39" x="5" y="84.9951">Client</text><ellipse cx="27.5" cy="15" fill="#FEFECE" filter="url(#f14k1win8mbbt4)" rx="8" ry="8" style="stroke:#A80036;stroke-width:2.0;"/><path d="M27.5,23 L27.5,50 M14.5,31 L40.5,31 M27.5,50 L14.5,65 M27.5,50 L40.5,65 " fill="none" filter="url(#f14k1win8mbbt4)" style="stroke:#A80036;stroke-width:2.0;"/><text fill="#000000" font-family="sans-serif" font-size="14" lengthAdjust="spacingAndGlyphs" textLength="39" x="5" y="1909.9951">Client</text><ellipse cx="27.5" cy="1923.2969" fill="#FEFECE" filter="url(#f14k1win8mbbt4)" rx="8" ry="8" style="stroke:#A80036;stroke-width:2.0;"/><path d="M27.5,1931.2969 L27.5,1958.2969 M14.5,1939.2969 L40.5,1939.2969 M27.5,1958.2969 L14.5,1973.2969 M27.5,1958.2969 L40.5,1973.2969 " fill="none" filter="url(#f14k1win8mbbt4)" style="stroke:#A80036;stroke-width:2.0;"/><rect fill="#FEFECE" filter="url(#f14k1win8mbbt4)" height="30.2969" style="stroke:#A80036;stroke-width:1.5;" width="100" x="148.5" y="53"/><text fill="#000000" font-family="sans-serif" font-size="14" lengthAdjust="spacingAndGlyphs" textLength="86" x="155.5" y="72.9951">DesktopApp</text><rect fill="#FEFECE" filter="url(#f14k1win8mbbt4)" height="30.2969" style="stroke:#A80036;stroke-width:1.5;" width="100" x="148.5" y="1897"/><text fill="#000000" font-family="sans-serif" font-size="14" lengthAdjust="spacingAndGlyphs" textLength="86" x="155.5" y="1916.9951">DesktopApp</text><rect fill="#FEFECE" filter="url(#f14k1win8mbbt4)" height="30.2969" style="stroke:#A80036;stroke-width:1.5;" width="114" x="476.5" y="53"/><text fill="#000000" font-family="sans-serif" font-size="14" lengthAdjust="spacingAndGlyphs" textLength="100" x="483.5" y="72.9951">Authentication</text><rect fill="#FEFECE" filter="url(#f14k1win8mbbt4)" height="30.2969" style="stroke:#A80036;stroke-width:1.5;" width="114" x="476.5" y="1897"/><text fill="#000000" font-family="sans-serif" font-size="14" lengthAdjust="spacingAndGlyphs" textLength="100" x="483.5" y="1916.9951">Authentication</text><rect fill="#FEFECE" filter="url(#f14k1win8mbbt4)" height="30.2969" style="stroke:#A80036;stroke-width:1.5;" width="182" x="636.5" y="53"/><text fill="#000000" font-family="sans-serif" font-size="14" lengthAdjust="spacingAndGlyphs" textLength="168" x="643.5" y="72.9951">WorkspaceManagement</text><rect fill="#FEFECE" filter="url(#f14k1win8mbbt4)" height="30.2969" style="stroke:#A80036;stroke-width:1.5;" width="182" x="636.5" y="1897"/><text fill="#000000" font-family="sans-serif" font-size="14" lengthAdjust="spacingAndGlyphs" textLength="168" x="643.5" y="1916.9951">WorkspaceManagement</text><rect fill="#FEFECE" filter="url(#f14k1win8mbbt4)" height="30.2969" style="stroke:#A80036;stroke-width:1.5;" width="86" x="964.5" y="53"/><text fill="#000000" font-family="sans-serif" font-size="14" lengthAdjust="spacingAndGlyphs" textLength="72" x="971.5" y="72.9951">MobileApp</text><rect fill="#FEFECE" filter="url(#f14k1win8mbbt4)" height="30.2969" style="stroke:#A80036;stroke-width:1.5;" width="86" x="964.5" y="1897"/><text fill="#000000" font-family="sans-serif" font-size="14" lengthAdjust="spacingAndGlyphs" textLength="72" x="971.5" y="1916.9951">MobileApp</text><rect fill="#FEFECE" filter="url(#f14k1win8mbbt4)" height="30.2969" style="stroke:#A80036;stroke-width:1.5;" width="147" x="1064.5" y="53"/><text fill="#000000" font-family="sans-serif" font-size="14" lengthAdjust="spacingAndGlyphs" textLength="133" x="1071.5" y="72.9951">ModelManagement</text><rect fill="#FEFECE" filter="url(#f14k1win8mbbt4)" height="30.2969" style="stroke:#A80036;stroke-width:1.5;" width="147" x="1064.5" y="1897"/><text fill="#000000" font-family="sans-serif" font-size="14" lengthAdjust="spacingAndGlyphs" textLength="133" x="1071.5" y="1916.9951">ModelManagement</text><rect fill="#FFFFFF" filter="url(#f14k1win8mbbt4)" height="1769.5703" style="stroke:#A80036;stroke-width:1.0;" width="10" x="195.5" y="119.4297"/><rect fill="#FFFFFF" filter="url(#f14k1win8mbbt4)" height="29.1328" style="stroke:#A80036;stroke-width:1.0;" width="10" x="530.5" y="148.5625"/><rect fill="#FFFFFF" filter="url(#f14k1win8mbbt4)" height="29.1328" style="stroke:#A80036;stroke-width:1.0;" width="10" x="530.5" y="206.8281"/><rect fill="#FFFFFF" filter="url(#f14k1win8mbbt4)" height="29.1328" style="stroke:#A80036;stroke-width:1.0;" width="10" x="530.5" y="265.0938"/><rect fill="#FFFFFF" filter="url(#f14k1win8mbbt4)" height="29.1328" style="stroke:#A80036;stroke-width:1.0;" width="10" x="724.5" y="373.3594"/><rect fill="#FFFFFF" filter="url(#f14k1win8mbbt4)" height="29.1328" style="stroke:#A80036;stroke-width:1.0;" width="10" x="724.5" y="431.625"/><rect fill="#FFFFFF" filter="url(#f14k1win8mbbt4)" height="29.1328" style="stroke:#A80036;stroke-width:1.0;" width="10" x="724.5" y="489.8906"/><rect fill="#FFFFFF" filter="url(#f14k1win8mbbt4)" height="29.1328" style="stroke:#A80036;stroke-width:1.0;" width="10" x="724.5" y="548.1563"/><rect fill="#FFFFFF" filter="url(#f14k1win8mbbt4)" height="29.1328" style="stroke:#A80036;stroke-width:1.0;" width="10" x="724.5" y="606.4219"/><rect fill="#FFFFFF" filter="url(#f14k1win8mbbt4)" height="29.1328" style="stroke:#A80036;stroke-width:1.0;" width="10" x="724.5" y="664.6875"/><rect fill="#FFFFFF" filter="url(#f14k1win8mbbt4)" height="29.1328" style="stroke:#A80036;stroke-width:1.0;" width="10" x="724.5" y="722.9531"/><rect fill="#FFFFFF" filter="url(#f14k1win8mbbt4)" height="29.1328" style="stroke:#A80036;stroke-width:1.0;" width="10" x="724.5" y="781.2188"/><rect fill="#FFFFFF" filter="url(#f14k1win8mbbt4)" height="29.1328" style="stroke:#A80036;stroke-width:1.0;" width="10" x="724.5" y="839.4844"/><rect fill="#FFFFFF" filter="url(#f14k1win8mbbt4)" height="29.1328" style="stroke:#A80036;stroke-width:1.0;" width="10" x="724.5" y="897.75"/><rect fill="#FFFFFF" filter="url(#f14k1win8mbbt4)" height="29.1328" style="stroke:#A80036;stroke-width:1.0;" width="10" x="724.5" y="956.0156"/><rect fill="#FFFFFF" filter="url(#f14k1win8mbbt4)" height="29.1328" style="stroke:#A80036;stroke-width:1.0;" width="10" x="724.5" y="1014.2813"/><rect fill="#FFFFFF" filter="url(#f14k1win8mbbt4)" height="29.1328" style="stroke:#A80036;stroke-width:1.0;" width="10" x="724.5" y="1072.5469"/><rect fill="#FFFFFF" filter="url(#f14k1win8mbbt4)" height="29.1328" style="stroke:#A80036;stroke-width:1.0;" width="10" x="724.5" y="1130.8125"/><rect fill="#FFFFFF" filter="url(#f14k1win8mbbt4)" height="29.1328" style="stroke:#A80036;stroke-width:1.0;" width="10" x="724.5" y="1189.0781"/><rect fill="#FFFFFF" filter="url(#f14k1win8mbbt4)" height="29.1328" style="stroke:#A80036;stroke-width:1.0;" width="10" x="724.5" y="1276.4766"/><rect fill="#FFFFFF" filter="url(#f14k1win8mbbt4)" height="29.1328" style="stroke:#A80036;stroke-width:1.0;" width="10" x="724.5" y="1334.7422"/><rect fill="#FFFFFF" filter="url(#f14k1win8mbbt4)" height="641.6563" style="stroke:#A80036;stroke-width:1.0;" width="10" x="1004.5" y="1247.3438"/><rect fill="#FFFFFF" filter="url(#f14k1win8mbbt4)" height="29.1328" style="stroke:#A80036;stroke-width:1.0;" width="10" x="1135" y="1443.0078"/><rect fill="#FFFFFF" filter="url(#f14k1win8mbbt4)" height="29.1328" style="stroke:#A80036;stroke-width:1.0;" width="10" x="1135" y="1501.2734"/><rect fill="#FFFFFF" filter="url(#f14k1win8mbbt4)" height="29.1328" style="stroke:#A80036;stroke-width:1.0;" width="10" x="1135" y="1559.5391"/><rect fill="#FFFFFF" filter="url(#f14k1win8mbbt4)" height="29.1328" style="stroke:#A80036;stroke-width:1.0;" width="10" x="1135" y="1617.8047"/><rect fill="#FFFFFF" filter="url(#f14k1win8mbbt4)" height="29.1328" style="stroke:#A80036;stroke-width:1.0;" width="10" x="1135" y="1676.0703"/><rect fill="#FFFFFF" filter="url(#f14k1win8mbbt4)" height="29.1328" style="stroke:#A80036;stroke-width:1.0;" width="10" x="1135" y="1734.3359"/><rect fill="#FFFFFF" filter="url(#f14k1win8mbbt4)" height="29.1328" style="stroke:#A80036;stroke-width:1.0;" width="10" x="1135" y="1792.6016"/><rect fill="#FFFFFF" filter="url(#f14k1win8mbbt4)" height="29.1328" style="stroke:#A80036;stroke-width:1.0;" width="10" x="1135" y="1850.8672"/><polygon fill="#A80036" points="183.5,115.4297,193.5,119.4297,183.5,123.4297,187.5,119.4297" style="stroke:#A80036;stroke-width:1.0;"/><line style="stroke:#A80036;stroke-width:1.0;" x1="27.5" x2="189.5" y1="119.4297" y2="119.4297"/><text fill="#000000" font-family="sans-serif" font-size="13" lengthAdjust="spacingAndGlyphs" textLength="149" x="34.5" y="114.3638">Opens the desktop app</text><polygon fill="#A80036" points="518.5,144.5625,528.5,148.5625,518.5,152.5625,522.5,148.5625" style="stroke:#A80036;stroke-width:1.0;"/><line style="stroke:#A80036;stroke-width:1.0;" x1="205.5" x2="524.5" y1="148.5625" y2="148.5625"/><text fill="#000000" font-family="sans-serif" font-size="13" lengthAdjust="spacingAndGlyphs" textLength="306" x="212.5" y="143.4966">signup(username: string, passwordHash: string)</text><polygon fill="#A80036" points="216.5,173.6953,206.5,177.6953,216.5,181.6953,212.5,177.6953" style="stroke:#A80036;stroke-width:1.0;"/><line style="stroke:#A80036;stroke-width:1.0;stroke-dasharray:2.0,2.0;" x1="210.5" x2="534.5" y1="177.6953" y2="177.6953"/><text fill="#000000" font-family="sans-serif" font-size="13" lengthAdjust="spacingAndGlyphs" textLength="53" x="222.5" y="172.6294">Success</text><polygon fill="#A80036" points="518.5,202.8281,528.5,206.8281,518.5,210.8281,522.5,206.8281" style="stroke:#A80036;stroke-width:1.0;"/><line style="stroke:#A80036;stroke-width:1.0;" x1="205.5" x2="524.5" y1="206.8281" y2="206.8281"/><text fill="#000000" font-family="sans-serif" font-size="13" lengthAdjust="spacingAndGlyphs" textLength="294" x="212.5" y="201.7622">login(username: string, passwordHash: string)</text><polygon fill="#A80036" points="216.5,231.9609,206.5,235.9609,216.5,239.9609,212.5,235.9609" style="stroke:#A80036;stroke-width:1.0;"/><line style="stroke:#A80036;stroke-width:1.0;stroke-dasharray:2.0,2.0;" x1="210.5" x2="534.5" y1="235.9609" y2="235.9609"/><text fill="#000000" font-family="sans-serif" font-size="13" lengthAdjust="spacingAndGlyphs" textLength="188" x="222.5" y="230.895">access token + refresh token</text><polygon fill="#A80036" points="518.5,261.0938,528.5,265.0938,518.5,269.0938,522.5,265.0938" style="stroke:#A80036;stroke-width:1.0;"/><line style="stroke:#A80036;stroke-width:1.0;" x1="205.5" x2="524.5" y1="265.0938" y2="265.0938"/><text fill="#000000" font-family="sans-serif" font-size="13" lengthAdjust="spacingAndGlyphs" textLength="182" x="212.5" y="260.0278">refresh(refreshToken: string)</text><polygon fill="#A80036" points="216.5,290.2266,206.5,294.2266,216.5,298.2266,212.5,294.2266" style="stroke:#A80036;stroke-width:1.0;"/><line style="stroke:#A80036;stroke-width:1.0;stroke-dasharray:2.0,2.0;" x1="210.5" x2="534.5" y1="294.2266" y2="294.2266"/><text fill="#000000" font-family="sans-serif" font-size="13" lengthAdjust="spacingAndGlyphs" textLength="53" x="222.5" y="289.1606">Success</text><polygon fill="#A80036" points="712.5,369.3594,722.5,373.3594,712.5,377.3594,716.5,373.3594" style="stroke:#A80036;stroke-width:1.0;"/><line style="stroke:#A80036;stroke-width:1.0;" x1="205.5" x2="718.5" y1="373.3594" y2="373.3594"/><text fill="#000000" font-family="sans-serif" font-size="13" lengthAdjust="spacingAndGlyphs" textLength="83" x="212.5" y="368.2935">getSensors()</text><polygon fill="#A80036" points="216.5,398.4922,206.5,402.4922,216.5,406.4922,212.5,402.4922" style="stroke:#A80036;stroke-width:1.0;"/><line style="stroke:#A80036;stroke-width:1.0;stroke-dasharray:2.0,2.0;" x1="210.5" x2="728.5" y1="402.4922" y2="402.4922"/><text fill="#000000" font-family="sans-serif" font-size="13" lengthAdjust="spacingAndGlyphs" textLength="175" x="222.5" y="397.4263">list of the available Sensors</text><polygon fill="#A80036" points="712.5,427.625,722.5,431.625,712.5,435.625,716.5,431.625" style="stroke:#A80036;stroke-width:1.0;"/><line style="stroke:#A80036;stroke-width:1.0;" x1="205.5" x2="718.5" y1="431.625" y2="431.625"/><text fill="#000000" font-family="sans-serif" font-size="13" lengthAdjust="spacingAndGlyphs" textLength="107" x="212.5" y="426.5591">getWorkspaces()</text><polygon fill="#A80036" points="216.5,456.7578,206.5,460.7578,216.5,464.7578,212.5,460.7578" style="stroke:#A80036;stroke-width:1.0;"/><line style="stroke:#A80036;stroke-width:1.0;stroke-dasharray:2.0,2.0;" x1="210.5" x2="728.5" y1="460.7578" y2="460.7578"/><text fill="#000000" font-family="sans-serif" font-size="13" lengthAdjust="spacingAndGlyphs" textLength="199" x="222.5" y="455.6919">list of the available Workspaces</text><polygon fill="#A80036" points="712.5,485.8906,722.5,489.8906,712.5,493.8906,716.5,489.8906" style="stroke:#A80036;stroke-width:1.0;"/><line style="stroke:#A80036;stroke-width:1.0;" x1="205.5" x2="718.5" y1="489.8906" y2="489.8906"/><text fill="#000000" font-family="sans-serif" font-size="13" lengthAdjust="spacingAndGlyphs" textLength="448" x="212.5" y="484.8247">create(name: string, sensors: Array of Objects, samplingRate: integer)</text><polygon fill="#A80036" points="216.5,515.0234,206.5,519.0234,216.5,523.0234,212.5,519.0234" style="stroke:#A80036;stroke-width:1.0;"/><line style="stroke:#A80036;stroke-width:1.0;stroke-dasharray:2.0,2.0;" x1="210.5" x2="728.5" y1="519.0234" y2="519.0234"/><text fill="#000000" font-family="sans-serif" font-size="13" lengthAdjust="spacingAndGlyphs" textLength="120" x="222.5" y="513.9575">workspace created</text><polygon fill="#A80036" points="712.5,544.1563,722.5,548.1563,712.5,552.1563,716.5,548.1563" style="stroke:#A80036;stroke-width:1.0;"/><line style="stroke:#A80036;stroke-width:1.0;" x1="205.5" x2="718.5" y1="548.1563" y2="548.1563"/><text fill="#000000" font-family="sans-serif" font-size="13" lengthAdjust="spacingAndGlyphs" textLength="342" x="212.5" y="543.0903">rename(workspaceID: string, workspaceName: string)</text><polygon fill="#A80036" points="216.5,573.2891,206.5,577.2891,216.5,581.2891,212.5,577.2891" style="stroke:#A80036;stroke-width:1.0;"/><line style="stroke:#A80036;stroke-width:1.0;stroke-dasharray:2.0,2.0;" x1="210.5" x2="728.5" y1="577.2891" y2="577.2891"/><text fill="#000000" font-family="sans-serif" font-size="13" lengthAdjust="spacingAndGlyphs" textLength="129" x="222.5" y="572.2231">workspace renamed</text><polygon fill="#A80036" points="712.5,602.4219,722.5,606.4219,712.5,610.4219,716.5,606.4219" style="stroke:#A80036;stroke-width:1.0;"/><line style="stroke:#A80036;stroke-width:1.0;" x1="205.5" x2="718.5" y1="606.4219" y2="606.4219"/><text fill="#000000" font-family="sans-serif" font-size="13" lengthAdjust="spacingAndGlyphs" textLength="207" x="212.5" y="601.356">getSensors(workspaceID: string)</text><polygon fill="#A80036" points="216.5,631.5547,206.5,635.5547,216.5,639.5547,212.5,635.5547" style="stroke:#A80036;stroke-width:1.0;"/><line style="stroke:#A80036;stroke-width:1.0;stroke-dasharray:2.0,2.0;" x1="210.5" x2="728.5" y1="635.5547" y2="635.5547"/><text fill="#000000" font-family="sans-serif" font-size="13" lengthAdjust="spacingAndGlyphs" textLength="418" x="222.5" y="630.4888">list of the available Sensors in the workspace with sampling rates.</text><polygon fill="#A80036" points="712.5,660.6875,722.5,664.6875,712.5,668.6875,716.5,664.6875" style="stroke:#A80036;stroke-width:1.0;"/><line style="stroke:#A80036;stroke-width:1.0;" x1="205.5" x2="718.5" y1="664.6875" y2="664.6875"/><text fill="#000000" font-family="sans-serif" font-size="13" lengthAdjust="spacingAndGlyphs" textLength="320" x="212.5" y="659.6216">getSamples(workspaceID: string, onlyIDs boolean)</text><polygon fill="#A80036" points="216.5,689.8203,206.5,693.8203,216.5,697.8203,212.5,693.8203" style="stroke:#A80036;stroke-width:1.0;"/><line style="stroke:#A80036;stroke-width:1.0;stroke-dasharray:2.0,2.0;" x1="210.5" x2="728.5" y1="693.8203" y2="693.8203"/><text fill="#000000" font-family="sans-serif" font-size="13" lengthAdjust="spacingAndGlyphs" textLength="229" x="222.5" y="688.7544">list of the samples of the workspace</text><polygon fill="#A80036" points="712.5,718.9531,722.5,722.9531,712.5,726.9531,716.5,722.9531" style="stroke:#A80036;stroke-width:1.0;"/><line style="stroke:#A80036;stroke-width:1.0;" x1="205.5" x2="718.5" y1="722.9531" y2="722.9531"/><text fill="#000000" font-family="sans-serif" font-size="13" lengthAdjust="spacingAndGlyphs" textLength="316" x="212.5" y="717.8872">getSample(workspaceID: string, sampleID: string)</text><polygon fill="#A80036" points="216.5,748.0859,206.5,752.0859,216.5,756.0859,212.5,752.0859" style="stroke:#A80036;stroke-width:1.0;"/><line style="stroke:#A80036;stroke-width:1.0;stroke-dasharray:2.0,2.0;" x1="210.5" x2="728.5" y1="752.0859" y2="752.0859"/><text fill="#000000" font-family="sans-serif" font-size="13" lengthAdjust="spacingAndGlyphs" textLength="164" x="222.5" y="747.02">data points of the sample</text><polygon fill="#A80036" points="712.5,777.2188,722.5,781.2188,712.5,785.2188,716.5,781.2188" style="stroke:#A80036;stroke-width:1.0;"/><line style="stroke:#A80036;stroke-width:1.0;" x1="205.5" x2="718.5" y1="781.2188" y2="781.2188"/><text fill="#000000" font-family="sans-serif" font-size="13" lengthAdjust="spacingAndGlyphs" textLength="337" x="212.5" y="776.1528">DeleteSample(workspaceID: string, sampleID: string)</text><polygon fill="#A80036" points="216.5,806.3516,206.5,810.3516,216.5,814.3516,212.5,810.3516" style="stroke:#A80036;stroke-width:1.0;"/><line style="stroke:#A80036;stroke-width:1.0;stroke-dasharray:2.0,2.0;" x1="210.5" x2="728.5" y1="810.3516" y2="810.3516"/><text fill="#000000" font-family="sans-serif" font-size="13" lengthAdjust="spacingAndGlyphs" textLength="99" x="222.5" y="805.2856">sample deleted</text><polygon fill="#A80036" points="712.5,835.4844,722.5,839.4844,712.5,843.4844,716.5,839.4844" style="stroke:#A80036;stroke-width:1.0;"/><line style="stroke:#A80036;stroke-width:1.0;" x1="205.5" x2="718.5" y1="839.4844" y2="839.4844"/><text fill="#000000" font-family="sans-serif" font-size="13" lengthAdjust="spacingAndGlyphs" textLength="386" x="212.5" y="834.4185">relable(workspaceID: string, sampleID: string, labelID: String)</text><polygon fill="#A80036" points="216.5,864.6172,206.5,868.6172,216.5,872.6172,212.5,868.6172" style="stroke:#A80036;stroke-width:1.0;"/><line style="stroke:#A80036;stroke-width:1.0;stroke-dasharray:2.0,2.0;" x1="210.5" x2="728.5" y1="868.6172" y2="868.6172"/><text fill="#000000" font-family="sans-serif" font-size="13" lengthAdjust="spacingAndGlyphs" textLength="104" x="222.5" y="863.5513">Sample relabled</text><polygon fill="#A80036" points="712.5,893.75,722.5,897.75,712.5,901.75,716.5,897.75" style="stroke:#A80036;stroke-width:1.0;"/><line style="stroke:#A80036;stroke-width:1.0;" x1="205.5" x2="718.5" y1="897.75" y2="897.75"/><text fill="#000000" font-family="sans-serif" font-size="13" lengthAdjust="spacingAndGlyphs" textLength="500" x="212.5" y="892.6841">timeframes(workspaceId: string, sampleID: string, timeframe: array of objects)</text><polygon fill="#A80036" points="216.5,922.8828,206.5,926.8828,216.5,930.8828,212.5,926.8828" style="stroke:#A80036;stroke-width:1.0;"/><line style="stroke:#A80036;stroke-width:1.0;stroke-dasharray:2.0,2.0;" x1="210.5" x2="728.5" y1="926.8828" y2="926.8828"/><text fill="#000000" font-family="sans-serif" font-size="13" lengthAdjust="spacingAndGlyphs" textLength="135" x="222.5" y="921.8169">Timeframes changed</text><polygon fill="#A80036" points="712.5,952.0156,722.5,956.0156,712.5,960.0156,716.5,956.0156" style="stroke:#A80036;stroke-width:1.0;"/><line style="stroke:#A80036;stroke-width:1.0;" x1="205.5" x2="718.5" y1="956.0156" y2="956.0156"/><text fill="#000000" font-family="sans-serif" font-size="13" lengthAdjust="spacingAndGlyphs" textLength="169" x="212.5" y="950.9497">lables(workspaceId: string)</text><polygon fill="#A80036" points="216.5,981.1484,206.5,985.1484,216.5,989.1484,212.5,985.1484" style="stroke:#A80036;stroke-width:1.0;"/><line style="stroke:#A80036;stroke-width:1.0;stroke-dasharray:2.0,2.0;" x1="210.5" x2="728.5" y1="985.1484" y2="985.1484"/><text fill="#000000" font-family="sans-serif" font-size="13" lengthAdjust="spacingAndGlyphs" textLength="164" x="222.5" y="980.0825">List of the available lables</text><polygon fill="#A80036" points="712.5,1010.2813,722.5,1014.2813,712.5,1018.2813,716.5,1014.2813" style="stroke:#A80036;stroke-width:1.0;"/><line style="stroke:#A80036;stroke-width:1.0;" x1="205.5" x2="718.5" y1="1014.2813" y2="1014.2813"/><text fill="#000000" font-family="sans-serif" font-size="13" lengthAdjust="spacingAndGlyphs" textLength="303" x="212.5" y="1009.2153">deleteLable(workspaceID: string, lableID: string)</text><polygon fill="#A80036" points="216.5,1039.4141,206.5,1043.4141,216.5,1047.4141,212.5,1043.4141" style="stroke:#A80036;stroke-width:1.0;"/><line style="stroke:#A80036;stroke-width:1.0;stroke-dasharray:2.0,2.0;" x1="210.5" x2="728.5" y1="1043.4141" y2="1043.4141"/><text fill="#000000" font-family="sans-serif" font-size="13" lengthAdjust="spacingAndGlyphs" textLength="191" x="222.5" y="1038.3481">Lable and its samples deleted</text><polygon fill="#A80036" points="712.5,1068.5469,722.5,1072.5469,712.5,1076.5469,716.5,1072.5469" style="stroke:#A80036;stroke-width:1.0;"/><line style="stroke:#A80036;stroke-width:1.0;" x1="205.5" x2="718.5" y1="1072.5469" y2="1072.5469"/><text fill="#000000" font-family="sans-serif" font-size="13" lengthAdjust="spacingAndGlyphs" textLength="395" x="212.5" y="1067.481">renameLable(workspaceID: string, lableID: string, lable: string)</text><polygon fill="#A80036" points="216.5,1097.6797,206.5,1101.6797,216.5,1105.6797,212.5,1101.6797" style="stroke:#A80036;stroke-width:1.0;"/><line style="stroke:#A80036;stroke-width:1.0;stroke-dasharray:2.0,2.0;" x1="210.5" x2="728.5" y1="1101.6797" y2="1101.6797"/><text fill="#000000" font-family="sans-serif" font-size="13" lengthAdjust="spacingAndGlyphs" textLength="110" x="222.5" y="1096.6138">Lable is renamed</text><polygon fill="#A80036" points="712.5,1126.8125,722.5,1130.8125,712.5,1134.8125,716.5,1130.8125" style="stroke:#A80036;stroke-width:1.0;"/><line style="stroke:#A80036;stroke-width:1.0;" x1="205.5" x2="718.5" y1="1130.8125" y2="1130.8125"/><text fill="#000000" font-family="sans-serif" font-size="13" lengthAdjust="spacingAndGlyphs" textLength="405" x="212.5" y="1125.7466">describe(workspaceID: string, lableID: string, description: string)</text><polygon fill="#A80036" points="216.5,1155.9453,206.5,1159.9453,216.5,1163.9453,212.5,1159.9453" style="stroke:#A80036;stroke-width:1.0;"/><line style="stroke:#A80036;stroke-width:1.0;stroke-dasharray:2.0,2.0;" x1="210.5" x2="728.5" y1="1159.9453" y2="1159.9453"/><text fill="#000000" font-family="sans-serif" font-size="13" lengthAdjust="spacingAndGlyphs" textLength="51" x="222.5" y="1154.8794">success</text><polygon fill="#A80036" points="712.5,1185.0781,722.5,1189.0781,712.5,1193.0781,716.5,1189.0781" style="stroke:#A80036;stroke-width:1.0;"/><line style="stroke:#A80036;stroke-width:1.0;" x1="205.5" x2="718.5" y1="1189.0781" y2="1189.0781"/><text fill="#000000" font-family="sans-serif" font-size="13" lengthAdjust="spacingAndGlyphs" textLength="219" x="212.5" y="1184.0122">submissionID(workspaceID: string)</text><polygon fill="#A80036" points="216.5,1214.2109,206.5,1218.2109,216.5,1222.2109,212.5,1218.2109" style="stroke:#A80036;stroke-width:1.0;"/><line style="stroke:#A80036;stroke-width:1.0;stroke-dasharray:2.0,2.0;" x1="210.5" x2="728.5" y1="1218.2109" y2="1218.2109"/><text fill="#000000" font-family="sans-serif" font-size="13" lengthAdjust="spacingAndGlyphs" textLength="199" x="222.5" y="1213.145">the submission id of workspace</text><polygon fill="#A80036" points="992.5,1243.3438,1002.5,1247.3438,992.5,1251.3438,996.5,1247.3438" style="stroke:#A80036;stroke-width:1.0;"/><line style="stroke:#A80036;stroke-width:1.0;" x1="27.5" x2="998.5" y1="1247.3438" y2="1247.3438"/><text fill="#000000" font-family="sans-serif" font-size="13" lengthAdjust="spacingAndGlyphs" textLength="52" x="34.5" y="1242.2778">scan QR</text><polygon fill="#A80036" points="745.5,1272.4766,735.5,1276.4766,745.5,1280.4766,741.5,1276.4766" style="stroke:#A80036;stroke-width:1.0;"/><line style="stroke:#A80036;stroke-width:1.0;" x1="739.5" x2="1003.5" y1="1276.4766" y2="1276.4766"/><text fill="#000000" font-family="sans-serif" font-size="13" lengthAdjust="spacingAndGlyphs" textLength="251" x="751.5" y="1271.4106">submissionConfig(submissionID: string)</text><polygon fill="#A80036" points="992.5,1301.6094,1002.5,1305.6094,992.5,1309.6094,996.5,1305.6094" style="stroke:#A80036;stroke-width:1.0;"/><line style="stroke:#A80036;stroke-width:1.0;stroke-dasharray:2.0,2.0;" x1="729.5" x2="998.5" y1="1305.6094" y2="1305.6094"/><text fill="#000000" font-family="sans-serif" font-size="13" lengthAdjust="spacingAndGlyphs" textLength="85" x="736.5" y="1300.5435">Configuration</text><polygon fill="#A80036" points="745.5,1330.7422,735.5,1334.7422,745.5,1338.7422,741.5,1334.7422" style="stroke:#A80036;stroke-width:1.0;"/><line style="stroke:#A80036;stroke-width:1.0;" x1="739.5" x2="1003.5" y1="1334.7422" y2="1334.7422"/><text fill="#000000" font-family="sans-serif" font-size="13" lengthAdjust="spacingAndGlyphs" textLength="232" x="751.5" y="1329.6763">submitSample(submissionID: string)</text><polygon fill="#A80036" points="992.5,1359.875,1002.5,1363.875,992.5,1367.875,996.5,1363.875" style="stroke:#A80036;stroke-width:1.0;"/><line style="stroke:#A80036;stroke-width:1.0;stroke-dasharray:2.0,2.0;" x1="729.5" x2="998.5" y1="1363.875" y2="1363.875"/><text fill="#000000" font-family="sans-serif" font-size="13" lengthAdjust="spacingAndGlyphs" textLength="53" x="736.5" y="1358.8091">Success</text><polygon fill="#A80036" points="1123,1439.0078,1133,1443.0078,1123,1447.0078,1127,1443.0078" style="stroke:#A80036;stroke-width:1.0;"/><line style="stroke:#A80036;stroke-width:1.0;" x1="205.5" x2="1129" y1="1443.0078" y2="1443.0078"/><text fill="#000000" font-family="sans-serif" font-size="13" lengthAdjust="spacingAndGlyphs" textLength="106" x="212.5" y="1437.9419">getParameters()</text><polygon fill="#A80036" points="216.5,1468.1406,206.5,1472.1406,216.5,1476.1406,212.5,1472.1406" style="stroke:#A80036;stroke-width:1.0;"/><line style="stroke:#A80036;stroke-width:1.0;stroke-dasharray:2.0,2.0;" x1="210.5" x2="1139" y1="1472.1406" y2="1472.1406"/><text fill="#000000" font-family="sans-serif" font-size="13" lengthAdjust="spacingAndGlyphs" textLength="207" x="222.5" y="1467.0747">list of the supported parameters</text><polygon fill="#A80036" points="1123,1497.2734,1133,1501.2734,1123,1505.2734,1127,1501.2734" style="stroke:#A80036;stroke-width:1.0;"/><line style="stroke:#A80036;stroke-width:1.0;" x1="205.5" x2="1129" y1="1501.2734" y2="1501.2734"/><text fill="#000000" font-family="sans-serif" font-size="13" lengthAdjust="spacingAndGlyphs" textLength="200" x="212.5" y="1496.2075">getModels(workspaceID: string)</text><polygon fill="#A80036" points="216.5,1526.4063,206.5,1530.4063,216.5,1534.4063,212.5,1530.4063" style="stroke:#A80036;stroke-width:1.0;"/><line style="stroke:#A80036;stroke-width:1.0;stroke-dasharray:2.0,2.0;" x1="210.5" x2="1139" y1="1530.4063" y2="1530.4063"/><text fill="#000000" font-family="sans-serif" font-size="13" lengthAdjust="spacingAndGlyphs" textLength="177" x="222.5" y="1525.3403">list of all the trained models</text><polygon fill="#A80036" points="1123,1555.5391,1133,1559.5391,1123,1563.5391,1127,1559.5391" style="stroke:#A80036;stroke-width:1.0;"/><line style="stroke:#A80036;stroke-width:1.0;" x1="205.5" x2="1129" y1="1559.5391" y2="1559.5391"/><text fill="#000000" font-family="sans-serif" font-size="13" lengthAdjust="spacingAndGlyphs" textLength="354" x="212.5" y="1554.4731">train(workspaceID: string, parameters: Array of objects)</text><polygon fill="#A80036" points="216.5,1584.6719,206.5,1588.6719,216.5,1592.6719,212.5,1588.6719" style="stroke:#A80036;stroke-width:1.0;"/><line style="stroke:#A80036;stroke-width:1.0;stroke-dasharray:2.0,2.0;" x1="210.5" x2="1139" y1="1588.6719" y2="1588.6719"/><text fill="#000000" font-family="sans-serif" font-size="13" lengthAdjust="spacingAndGlyphs" textLength="53" x="222.5" y="1583.606">Success</text><polygon fill="#A80036" points="1123,1613.8047,1133,1617.8047,1123,1621.8047,1127,1617.8047" style="stroke:#A80036;stroke-width:1.0;"/><line style="stroke:#A80036;stroke-width:1.0;" x1="205.5" x2="1129" y1="1617.8047" y2="1617.8047"/><text fill="#000000" font-family="sans-serif" font-size="13" lengthAdjust="spacingAndGlyphs" textLength="429" x="212.5" y="1612.7388">trainingProgress(workspaceID: string, parameters: Array of objects)</text><polygon fill="#A80036" points="216.5,1642.9375,206.5,1646.9375,216.5,1650.9375,212.5,1646.9375" style="stroke:#A80036;stroke-width:1.0;"/><line style="stroke:#A80036;stroke-width:1.0;stroke-dasharray:2.0,2.0;" x1="210.5" x2="1139" y1="1646.9375" y2="1646.9375"/><text fill="#000000" font-family="sans-serif" font-size="13" lengthAdjust="spacingAndGlyphs" textLength="73" x="222.5" y="1641.8716">Percentage</text><polygon fill="#A80036" points="1123,1672.0703,1133,1676.0703,1123,1680.0703,1127,1676.0703" style="stroke:#A80036;stroke-width:1.0;"/><line style="stroke:#A80036;stroke-width:1.0;" x1="205.5" x2="1129" y1="1676.0703" y2="1676.0703"/><text fill="#000000" font-family="sans-serif" font-size="13" lengthAdjust="spacingAndGlyphs" textLength="166" x="212.5" y="1671.0044">getModel(modelID: string)</text><polygon fill="#A80036" points="216.5,1701.2031,206.5,1705.2031,216.5,1709.2031,212.5,1705.2031" style="stroke:#A80036;stroke-width:1.0;"/><line style="stroke:#A80036;stroke-width:1.0;stroke-dasharray:2.0,2.0;" x1="210.5" x2="1139" y1="1705.2031" y2="1705.2031"/><text fill="#000000" font-family="sans-serif" font-size="13" lengthAdjust="spacingAndGlyphs" textLength="38" x="222.5" y="1700.1372">Model</text><polygon fill="#A80036" points="1123,1730.3359,1133,1734.3359,1123,1738.3359,1127,1734.3359" style="stroke:#A80036;stroke-width:1.0;"/><line style="stroke:#A80036;stroke-width:1.0;" x1="205.5" x2="1129" y1="1734.3359" y2="1734.3359"/><text fill="#000000" font-family="sans-serif" font-size="13" lengthAdjust="spacingAndGlyphs" textLength="336" x="212.5" y="1729.27">getPredictionID(modelID: string, workspaceID: string)</text><polygon fill="#A80036" points="216.5,1759.4688,206.5,1763.4688,216.5,1767.4688,212.5,1763.4688" style="stroke:#A80036;stroke-width:1.0;"/><line style="stroke:#A80036;stroke-width:1.0;stroke-dasharray:2.0,2.0;" x1="210.5" x2="1139" y1="1763.4688" y2="1763.4688"/><text fill="#000000" font-family="sans-serif" font-size="13" lengthAdjust="spacingAndGlyphs" textLength="76" x="222.5" y="1758.4028">PredictionID</text><polygon fill="#A80036" points="1123,1788.6016,1133,1792.6016,1123,1796.6016,1127,1792.6016" style="stroke:#A80036;stroke-width:1.0;"/><line style="stroke:#A80036;stroke-width:1.0;" x1="205.5" x2="1129" y1="1792.6016" y2="1792.6016"/><text fill="#000000" font-family="sans-serif" font-size="13" lengthAdjust="spacingAndGlyphs" textLength="254" x="212.5" y="1787.5356">getPredictionConfig(predictionID: string)</text><polygon fill="#A80036" points="216.5,1817.7344,206.5,1821.7344,216.5,1825.7344,212.5,1821.7344" style="stroke:#A80036;stroke-width:1.0;"/><line style="stroke:#A80036;stroke-width:1.0;stroke-dasharray:2.0,2.0;" x1="210.5" x2="1139" y1="1821.7344" y2="1821.7344"/><text fill="#000000" font-family="sans-serif" font-size="13" lengthAdjust="spacingAndGlyphs" textLength="85" x="222.5" y="1816.6685">Configuration</text><polygon fill="#A80036" points="1123,1846.8672,1133,1850.8672,1123,1854.8672,1127,1850.8672" style="stroke:#A80036;stroke-width:1.0;"/><line style="stroke:#A80036;stroke-width:1.0;" x1="205.5" x2="1129" y1="1850.8672" y2="1850.8672"/><text fill="#000000" font-family="sans-serif" font-size="13" lengthAdjust="spacingAndGlyphs" textLength="252" x="212.5" y="1845.8013">submitDataWindow(predictionID: string)</text><polygon fill="#A80036" points="216.5,1876,206.5,1880,216.5,1884,212.5,1880" style="stroke:#A80036;stroke-width:1.0;"/><line style="stroke:#A80036;stroke-width:1.0;stroke-dasharray:2.0,2.0;" x1="210.5" x2="1139" y1="1880" y2="1880"/><text fill="#000000" font-family="sans-serif" font-size="13" lengthAdjust="spacingAndGlyphs" textLength="53" x="222.5" y="1874.9341">Success</text><!--MD5=[4bddf1f75f87314fc5939106aa33bcc2]
@startuml General Sequence Diagram

actor Client as Client
Autoactivate on 
Client -> DesktopApp: Opens the desktop app 
DesktopApp -> Authentication: signup(username: string, passwordHash: string) 
return Success
DesktopApp -> Authentication: login(username: string, passwordHash: string)
return access token + refresh token
DesktopApp -> Authentication: refresh(refreshToken: string)
return Success

|||
|||

DesktopApp -> WorkspaceManagement: getSensors()
return list of the available Sensors
DesktopApp -> WorkspaceManagement: getWorkspaces()
return list of the available Workspaces
DesktopApp -> WorkspaceManagement: create(name: string, sensors: Array of Objects, samplingRate: integer) 
return workspace created
DesktopApp -> WorkspaceManagement: rename(workspaceID: string, workspaceName: string) 
return workspace renamed
DesktopApp -> WorkspaceManagement: getSensors(workspaceID: string)
return list of the available Sensors in the workspace with sampling rates.
DesktopApp -> WorkspaceManagement: getSamples(workspaceID: string, onlyIDs boolean) 
return list of the samples of the workspace
DesktopApp -> WorkspaceManagement: getSample(workspaceID: string, sampleID: string) 
return data points of the sample
DesktopApp -> WorkspaceManagement: DeleteSample(workspaceID: string, sampleID: string) 
return sample deleted
DesktopApp -> WorkspaceManagement: relable(workspaceID: string, sampleID: string, labelID: String) 
return Sample relabled
DesktopApp -> WorkspaceManagement: timeframes(workspaceId: string, sampleID: string, timeframe: array of objects) 
return Timeframes changed
DesktopApp -> WorkspaceManagement: lables(workspaceId: string) 
return List of the available lables 
DesktopApp -> WorkspaceManagement: deleteLable(workspaceID: string, lableID: string) 
return Lable and its samples deleted  
DesktopApp -> WorkspaceManagement: renameLable(workspaceID: string, lableID: string, lable: string) 
return Lable is renamed      
DesktopApp -> WorkspaceManagement: describe(workspaceID: string, lableID: string, description: string) 
return success
DesktopApp -> WorkspaceManagement: submissionID(workspaceID: string) 
return the submission id of workspace
Client -> MobileApp: scan QR 
MobileApp -> WorkspaceManagement: submissionConfig(submissionID: string) 
return Configuration 
MobileApp -> WorkspaceManagement: submitSample(submissionID: string) 
return Success                             
|||
|||

DesktopApp -> ModelManagement: getParameters()
return list of the supported parameters
DesktopApp -> ModelManagement: getModels(workspaceID: string)
return list of all the trained models
DesktopApp -> ModelManagement: train(workspaceID: string, parameters: Array of objects)
return Success 
DesktopApp -> ModelManagement: trainingProgress(workspaceID: string, parameters: Array of objects)
return Percentage 
DesktopApp -> ModelManagement: getModel(modelID: string)
return Model
DesktopApp -> ModelManagement: getPredictionID(modelID: string, workspaceID: string)
return PredictionID
DesktopApp -> ModelManagement: getPredictionConfig(predictionID: string)
return Configuration
DesktopApp -> ModelManagement: submitDataWindow(predictionID: string)
return Success
@enduml

PlantUML version 1.2020.22(Sun Dec 06 12:36:27 TRT 2020)
(GPL source distribution)
Java Runtime: OpenJDK Runtime Environment
JVM: OpenJDK 64-Bit Server VM
Default Encoding: UTF-8
Language: en
Country: null
--></g></svg>